<?xml version="1.0" encoding="UTF-8" standalone="no"?>
<!-- Created with Inkscape (http://www.inkscape.org/) -->

<svg
   xmlns:dc="http://purl.org/dc/elements/1.1/"
   xmlns:cc="http://creativecommons.org/ns#"
   xmlns:rdf="http://www.w3.org/1999/02/22-rdf-syntax-ns#"
   xmlns:svg="http://www.w3.org/2000/svg"
   xmlns="http://www.w3.org/2000/svg"
   xmlns:sodipodi="http://sodipodi.sourceforge.net/DTD/sodipodi-0.dtd"
   xmlns:inkscape="http://www.inkscape.org/namespaces/inkscape"
   version="1.1"
   id="svg1554"
   xml:space="preserve"
   width="512"
   height="512"
   viewBox="0 0 512 512"
   sodipodi:docname="anchor_1.svg"
   inkscape:version="0.92.3 (2405546, 2018-03-11)"><metadata
     id="metadata1560"><rdf:RDF><cc:Work
         rdf:about=""><dc:format>image/svg+xml</dc:format><dc:type
           rdf:resource="http://purl.org/dc/dcmitype/StillImage" /><dc:title></dc:title></cc:Work></rdf:RDF></metadata><defs
     id="defs1558"><clipPath
       clipPathUnits="userSpaceOnUse"
       id="clipPath1570"><path
         d="M 0,600 H 600 V 0 H 0 Z"
         id="path1568"
         inkscape:connector-curvature="0" /></clipPath></defs><sodipodi:namedview
     pagecolor="#ffffff"
     bordercolor="#666666"
     borderopacity="1"
     objecttolerance="10"
     gridtolerance="10"
     guidetolerance="10"
     inkscape:pageopacity="0"
     inkscape:pageshadow="2"
     inkscape:window-width="3840"
     inkscape:window-height="1888"
     id="namedview1556"
     showgrid="false"
     inkscape:zoom="1.7154452"
     inkscape:cx="173.25237"
     inkscape:cy="352.8422"
     inkscape:window-x="0"
     inkscape:window-y="60"
     inkscape:window-maximized="1"
     inkscape:current-layer="g1562" /><g
     id="g1562"
     inkscape:groupmode="layer"
     inkscape:label="anchor-1-publicdomainvectors.org [Converted]"
     transform="matrix(1.3333333,0,0,-1.3333333,0,512)"><g
       id="g1564"
       transform="matrix(0.67011153,0,0,0.67011153,0.87753821,-6.0210372)"><g
         id="g1566"
         clip-path="url(#clipPath1570)"><path
           d="m 451.593,182.601 c -0.192,-2.119 -0.502,-4.219 -0.839,-6.312 -0.355,-2.09 -0.776,-4.165 -1.253,-6.228 -0.488,-2.061 -1.036,-4.106 -1.632,-6.134 l -0.953,-3.026 -1.05,-2.993 c -0.746,-1.977 -1.52,-3.942 -2.382,-5.873 -0.865,-1.926 -1.755,-3.844 -2.757,-5.703 -0.959,-1.882 -2.039,-3.699 -3.136,-5.501 l -1.707,-2.664 -1.822,-2.588 c -1.27,-1.683 -2.532,-3.375 -3.937,-4.948 -1.343,-1.624 -2.835,-3.118 -4.3,-4.628 -1.53,-1.447 -3.053,-2.899 -4.697,-4.215 -0.795,-0.689 -1.617,-1.344 -2.476,-1.955 -0.85,-0.616 -1.667,-1.281 -2.546,-1.855 -1.752,-1.163 -3.5,-2.325 -5.346,-3.327 -1.792,-1.096 -3.724,-1.935 -5.587,-2.889 1.839,1.008 3.741,1.893 5.501,3.036 1.816,1.048 3.527,2.254 5.236,3.455 0.859,0.597 1.654,1.279 2.484,1.914 0.835,0.631 1.633,1.301 2.404,2.009 1.596,1.349 3.069,2.83 4.547,4.303 1.411,1.537 2.845,3.052 4.132,4.696 1.345,1.591 2.547,3.299 3.755,4.992 l 1.729,2.602 1.614,2.674 c 1.032,1.806 2.049,3.624 2.944,5.503 0.936,1.857 1.762,3.769 2.562,5.687 0.796,1.922 1.506,3.876 2.189,5.839 l 0.951,2.968 0.856,2.997 c 0.532,2.007 1.016,4.028 1.439,6.061 0.413,2.033 0.77,4.076 1.062,6.128 0.273,2.053 0.521,4.11 0.651,6.173 0.154,2.058 0.21,4.123 0.16,6.164 -0.012,0.415 -0.032,0.837 -0.054,1.257 -0.059,-0.126 -0.106,-0.257 -0.166,-0.383 l -1.32,-2.324 c -0.444,-0.776 -0.861,-1.571 -1.43,-2.258 -1.1,-1.397 -2.048,-2.938 -3.338,-4.165 -1.222,-1.293 -2.418,-2.619 -3.812,-3.716 l -2.024,-1.728 c -0.694,-0.548 -1.435,-1.03 -2.149,-1.547 l -2.168,-1.53 -2.271,-1.344 -2.276,-1.339 -2.355,-1.177 -2.355,-1.175 -2.412,-1.03 -2.415,-1.027 c -0.81,-0.33 -1.636,-0.608 -2.453,-0.913 -1.638,-0.596 -3.272,-1.222 -4.941,-1.715 -3.307,-1.093 -6.661,-2.001 -10.022,-2.878 l -5.062,-1.21 -5.081,-1.073 c -3.396,-0.668 -6.798,-1.313 -10.207,-1.858 -13.632,-2.27 -27.337,-3.707 -40.919,-5.363 -3.395,-0.413 -6.781,-0.845 -10.146,-1.322 -3.367,-0.478 -6.721,-0.986 -10.019,-1.61 -1.658,-0.298 -3.3,-0.625 -4.913,-1.007 -1.639,-0.333 -3.203,-0.792 -4.785,-1.215 -0.805,-0.195 -1.527,-0.499 -2.296,-0.741 -0.754,-0.256 -1.549,-0.501 -2.152,-0.798 -0.661,-0.304 -1.267,-0.496 -1.984,-0.87 l -5.09,-34.592 v -0.003 l -0.635,39.556 1.082,0.579 1.186,0.636 c 0.81,0.402 1.83,0.782 2.739,1.16 0.96,0.418 1.815,0.651 2.691,0.926 0.875,0.251 1.753,0.577 2.622,0.765 1.742,0.421 3.487,0.876 5.22,1.18 1.737,0.361 3.467,0.658 5.194,0.92 3.459,0.559 6.902,0.985 10.34,1.378 3.438,0.394 6.87,0.737 10.294,1.059 13.694,1.297 27.333,2.358 40.831,4.235 3.379,0.446 6.734,0.989 10.087,1.557 l 5.013,0.917 4.977,1.048 c 3.299,0.768 6.592,1.564 9.826,2.537 1.637,0.434 3.222,0.996 4.822,1.529 0.795,0.274 1.605,0.522 2.392,0.819 l 2.345,0.923 2.346,0.926 2.278,1.064 2.28,1.06 2.189,1.212 2.191,1.219 2.075,1.382 c 0.686,0.469 1.401,0.904 2.066,1.402 l 1.928,1.563 c 1.343,0.991 2.473,2.192 3.64,3.361 1.242,1.107 2.133,2.505 3.194,3.767 0.549,0.622 0.947,1.343 1.371,2.047 l 1.28,2.111 c 0.759,1.458 1.347,3.004 2.037,4.504 l 1.615,3.508 0.951,-3.523 c 0.64,-2.366 0.664,-4.474 0.687,-6.639 -0.003,-2.149 -0.121,-4.28 -0.335,-6.396 M 288.607,36.333 c -0.008,-2.999 -0.012,-4.598 -0.012,-4.598 0,0 -0.104,1.596 -0.299,4.588 -0.183,2.994 -0.511,7.383 -0.807,12.974 -0.317,5.588 -0.699,12.375 -1.137,20.16 -0.176,3.056 -0.359,6.271 -0.544,9.622 -0.288,5.187 -0.579,10.708 -0.852,16.529 -0.48,9.582 -0.994,19.964 -1.46,30.948 -0.466,10.982 -0.956,22.564 -1.464,34.547 -0.447,11.983 -1.004,24.362 -1.397,36.948 -0.425,12.584 -0.857,25.367 -1.29,38.152 -0.366,12.786 -0.732,25.572 -1.093,38.157 -0.044,1.46 -0.08,2.909 -0.12,4.365 l 5.517,-0.861 c 0.037,-1.112 0.08,-2.216 0.115,-3.332 0.427,-12.582 0.86,-25.366 1.292,-38.15 0.367,-12.787 0.735,-25.573 1.097,-38.158 0.391,-12.585 0.609,-24.976 0.912,-36.964 0.242,-11.989 0.476,-23.58 0.696,-34.571 0.221,-10.991 0.358,-21.384 0.476,-30.978 0.092,-5.857 0.146,-11.414 0.185,-16.632 0.023,-3.327 0.04,-6.519 0.057,-9.557 0.046,-7.796 0.088,-14.593 0.123,-20.19 0.053,-5.598 0,-9.999 0.005,-12.999 m -3.662,258.331 7.457,9.631 3.369,-0.317 -8.054,-10.403 -7.222,-9.329 -3.307,0.4 z m -19.318,-150.89 c -0.602,0.297 -1.396,0.542 -2.151,0.798 -0.768,0.242 -1.492,0.546 -2.297,0.741 -1.581,0.423 -3.144,0.882 -4.785,1.215 -1.613,0.382 -3.254,0.709 -4.911,1.007 -3.298,0.624 -6.655,1.132 -10.019,1.61 -3.368,0.477 -6.753,0.909 -10.148,1.322 -13.581,1.656 -27.286,3.093 -40.919,5.363 -3.409,0.545 -6.811,1.19 -10.205,1.858 l -5.083,1.073 -5.06,1.21 c -3.361,0.877 -6.715,1.785 -10.026,2.878 -1.667,0.493 -3.299,1.119 -4.939,1.715 -0.816,0.305 -1.642,0.583 -2.451,0.913 l -2.415,1.027 -2.413,1.03 -2.355,1.175 -2.354,1.177 -2.277,1.339 -2.272,1.344 -2.167,1.53 c -0.715,0.517 -1.456,0.999 -2.149,1.547 l -2.022,1.728 c -1.396,1.097 -2.593,2.423 -3.813,3.716 -1.291,1.227 -2.24,2.768 -3.339,4.165 -0.569,0.687 -0.986,1.482 -1.428,2.258 l -1.322,2.324 c -0.06,0.126 -0.107,0.257 -0.166,0.383 -0.023,-0.42 -0.042,-0.842 -0.055,-1.257 -0.05,-2.041 0.006,-4.106 0.161,-6.164 0.131,-2.063 0.377,-4.12 0.649,-6.173 0.294,-2.052 0.652,-4.095 1.064,-6.128 0.425,-2.033 0.906,-4.054 1.439,-6.061 l 0.857,-2.997 0.952,-2.968 c 0.681,-1.963 1.392,-3.917 2.186,-5.839 0.8,-1.918 1.626,-3.83 2.564,-5.687 0.894,-1.879 1.91,-3.697 2.942,-5.503 l 1.613,-2.674 1.731,-2.602 c 1.208,-1.693 2.411,-3.401 3.757,-4.992 1.285,-1.644 2.719,-3.159 4.13,-4.696 1.478,-1.473 2.951,-2.954 4.546,-4.303 0.771,-0.708 1.572,-1.378 2.406,-2.009 0.83,-0.635 1.623,-1.317 2.481,-1.914 1.713,-1.201 3.424,-2.407 5.237,-3.455 1.76,-1.143 3.662,-2.028 5.503,-3.036 -1.864,0.954 -3.797,1.793 -5.587,2.889 -1.848,1.002 -3.596,2.164 -5.348,3.327 -0.878,0.574 -1.695,1.239 -2.548,1.855 -0.856,0.611 -1.677,1.266 -2.472,1.955 -1.643,1.316 -3.167,2.768 -4.7,4.215 -1.465,1.51 -2.955,3.004 -4.299,4.628 -1.404,1.573 -2.665,3.265 -3.936,4.948 l -1.822,2.588 -1.708,2.664 c -1.095,1.802 -2.176,3.619 -3.133,5.501 -1.005,1.859 -1.894,3.777 -2.759,5.703 -0.861,1.931 -1.636,3.896 -2.384,5.873 l -1.047,2.993 -0.954,3.026 c -0.597,2.028 -1.143,4.073 -1.632,6.134 -0.476,2.063 -0.898,4.138 -1.255,6.228 -0.334,2.093 -0.645,4.193 -0.837,6.312 -0.215,2.116 -0.332,4.247 -0.336,6.396 0.024,2.168 0.047,4.273 0.687,6.639 l 0.953,3.523 1.613,-3.508 c 0.69,-1.5 1.278,-3.046 2.036,-4.505 l 1.281,-2.11 c 0.426,-0.704 0.822,-1.425 1.372,-2.047 1.062,-1.262 1.951,-2.66 3.195,-3.767 1.168,-1.169 2.298,-2.37 3.64,-3.361 l 1.93,-1.563 c 0.663,-0.498 1.377,-0.933 2.063,-1.402 l 2.075,-1.382 2.191,-1.219 2.19,-1.212 2.28,-1.06 2.277,-1.064 2.346,-0.926 2.345,-0.923 c 0.786,-0.297 1.595,-0.545 2.393,-0.819 1.599,-0.533 3.186,-1.095 4.822,-1.529 3.233,-0.973 6.527,-1.769 9.825,-2.537 l 4.978,-1.048 5.012,-0.917 c 3.352,-0.568 6.71,-1.111 10.087,-1.557 13.499,-1.877 27.135,-2.938 40.831,-4.235 3.425,-0.322 6.856,-0.665 10.294,-1.059 3.437,-0.393 6.882,-0.819 10.339,-1.378 1.728,-0.262 3.459,-0.559 5.196,-0.92 1.732,-0.304 3.475,-0.759 5.22,-1.18 0.868,-0.188 1.747,-0.514 2.62,-0.765 0.876,-0.275 1.731,-0.508 2.693,-0.926 0.91,-0.378 1.928,-0.758 2.737,-1.16 l 1.674,-0.897 0.594,-0.318 2.634,-39.553 -8.358,34.592 c -0.717,0.374 -1.322,0.566 -1.985,0.87 m 3.732,270.75 c -2.22,0.044 -4.291,0.163 -6.067,0.225 -1.775,0.066 -3.254,0.205 -4.291,0.262 -1.035,0.076 -1.627,0.139 -1.627,0.139 0,0 0.592,0.062 1.627,0.138 1.037,0.059 2.516,0.198 4.291,0.262 1.776,0.062 3.847,0.183 6.067,0.229 2.075,0.055 4.283,0.068 6.496,0.081 -0.013,2.65 -0.032,5.124 -0.053,7.392 -0.033,3.477 -0.025,6.488 -0.016,8.992 0.006,1.527 0.011,2.868 0.011,4.006 0.005,2.999 0.008,4.6 0.008,4.6 0,0 0.106,-1.599 0.299,-4.59 0.07,-1.136 0.159,-2.475 0.261,-4.002 0.166,-2.497 0.362,-5.502 0.544,-8.971 0.122,-2.279 0.261,-4.766 0.412,-7.429 2.027,-0.014 4.042,-0.025 5.945,-0.078 2.219,-0.042 4.291,-0.166 6.066,-0.229 1.775,-0.063 3.253,-0.204 4.29,-0.261 1.036,-0.076 1.628,-0.14 1.628,-0.14 0,0 -0.592,-0.063 -1.628,-0.139 -1.037,-0.058 -2.515,-0.199 -4.29,-0.263 -1.775,-0.062 -3.847,-0.185 -6.066,-0.227 -1.877,-0.051 -3.865,-0.064 -5.864,-0.077 0.584,-10.176 1.336,-22.893 2.035,-37.467 0.452,-9.585 0.943,-19.967 1.46,-30.948 0.462,-10.891 0.949,-22.374 1.452,-34.247 l -5.019,0.313 c -0.238,11.714 -0.467,23.048 -0.682,33.801 -0.169,10.991 -0.329,21.384 -0.476,30.977 -0.211,14.612 -0.255,27.367 -0.308,37.566 -2.217,0.015 -4.426,0.028 -6.505,0.085 M 458.514,251.896 C 443.954,153.58 315.173,170.569 299.493,173.012 l 0.398,35.728 0.312,28.042 0.483,43.553 c 2.178,-0.549 4.2,-1.233 5.254,-1.636 0.483,-0.259 1.048,-0.536 1.616,-0.811 0.539,-0.262 1.406,-0.686 1.764,-0.908 l 17.317,16.104 c -4.185,5.209 -10.379,7.328 -12.103,7.328 l -13.814,-17.168 -1.554,-1.932 -2.879,0.983 4.484,5.572 10.953,13.612 c -3.824,2.662 -7.721,3.282 -10.764,3.447 l 0.718,64.507 0.266,23.907 0.508,45.717 c 2.569,1.379 5.024,2.94 7.342,4.678 -2.574,3.498 -5.269,6.913 -8.106,10.203 -7.405,-5.457 -16.545,-8.686 -26.43,-8.686 -24.627,0 -44.664,20.035 -44.664,44.665 0,24.627 20.037,44.665 44.664,44.665 24.63,0 44.667,-20.038 44.667,-44.665 0,-6.012 -1.202,-11.746 -3.364,-16.986 3.29,-3.216 6.525,-6.515 9.725,-9.877 4.245,8.028 6.658,17.165 6.658,26.863 0,31.81 -25.875,57.684 -57.677,57.684 -31.804,0 -57.693,-25.874 -57.693,-57.684 0,-22.447 12.899,-41.924 31.661,-51.454 l 4.86,-60.027 1.87,-23.086 3.732,-46.071 c -0.839,0.093 -1.671,0.181 -2.512,0.28 l -17.528,-21.798 c 5.149,-0.752 10.37,-1.368 15.703,-1.935 l 5.677,6.89 v -0.002 l 8.308,10.081 2.569,3.117 3.203,-0.606 -13.747,-16.683 -2.6,-3.154 c 0.954,-0.097 1.916,-0.192 2.878,-0.288 l 6.054,-74.772 2.06,-25.43 1.01,-12.466 c -3.939,-0.527 -9.993,-1.209 -17.477,-1.658 -7.934,-0.476 -17.463,-0.686 -27.777,-0.161 -43.502,2.216 -100.862,17.518 -110.29,81.202 -14.311,-40.262 -11.043,-149.208 71.121,-156.847 -0.083,-4.581 0.366,-8.99 1.369,-13.139 2.985,-12.703 10.263,-22.059 15.87,-27.699 13.596,-13.311 28.329,-20.078 41.089,-25.383 10.852,-4.425 19.919,-6.912 26.54,-8.728 l 12.689,-3.18 -4.463,7.596 -3.845,1.34 c -6.15,2.282 -15.655,5.955 -27.101,11.456 -11.62,5.758 -24.949,13.289 -35.698,25.462 -5.814,6.736 -9.536,14.339 -10.769,22.024 -0.172,0.989 -0.3,1.996 -0.391,3.017 l -4.024,1.963 1.254,2.568 2.612,-1.274 c 1.657,3.57 2.355,8.984 1.434,11.55 l -6.531,3.186 1.254,2.568 6.03,-2.941 c 3.561,2.957 3.561,8.138 3.482,9.18 l -8.274,4.036 1.253,2.569 8.22,-4.012 c 3.198,2.798 5.432,7.174 6.087,10.896 0,0 -4.48,3.406 -8.88,4.296 -2.951,0.598 -4.184,0.879 -5.464,1.029 -0.629,0.071 -1.268,0.116 -2.127,0.147 -2.844,-5.22 -5.37,-10.654 -7.391,-16.307 -2.104,-5.974 -3.42,-11.868 -3.959,-17.547 -17.868,16.807 -16.479,39.906 -16.479,39.906 10.661,0.898 20.826,0.155 30.381,-1.641 6.213,-1.166 12.164,-2.779 17.824,-4.68 27.66,-9.289 48.312,-25.43 58.021,-29.823 l 1.894,-23.387 -29.054,14.545 c -4.645,-11.275 40.972,-79.761 40.972,-79.761 0,0 42.436,68.486 37.792,79.761 l -29.509,-14.771 0.271,24.264 c 15.732,7.955 54.891,39.699 104.876,35.493 0,0 1.701,-28.233 -22.802,-44.986 88.585,2.287 92.392,115.941 77.712,157.254"
           style="fill:#110f0d;fill-opacity:1;fill-rule:nonzero;stroke:none"
           id="path1572"
           inkscape:connector-curvature="0" /><path
           d="m 317.065,489.916 c 0,23.051 -18.754,41.806 -41.806,41.806 -23.051,0 -41.806,-18.755 -41.806,-41.806 0,-23.052 18.755,-41.806 41.806,-41.806 9.155,0 17.625,2.965 24.519,7.973 -4.77,5.332 -9.883,10.321 -15.366,14.812 -2.772,-1.338 -5.867,-2.11 -9.147,-2.11 -11.653,0 -21.128,9.477 -21.128,21.131 0,11.646 9.475,21.129 21.128,21.129 11.503,0 20.864,-9.241 21.108,-20.678 6.326,-4.679 12.257,-9.828 17.964,-15.284 1.759,4.614 2.728,9.611 2.728,14.833"
           style="fill:#110f0d;fill-opacity:1;fill-rule:nonzero;stroke:none"
           id="path1574"
           inkscape:connector-curvature="0" /><path
           d="m 342.21,402.647 -18.43,9.555 c -0.222,-0.368 -0.446,-0.735 -0.701,-1.11 -1.687,-2.308 -3.585,-4.491 -5.639,-6.543 l 17.661,-11.97 c 3.055,1.29 8.245,6.843 7.109,10.068"
           style="fill:#110f0d;fill-opacity:1;fill-rule:nonzero;stroke:none"
           id="path1576"
           inkscape:connector-curvature="0" /><path
           d="m 306.841,377.136 -0.173,-3.419 -0.111,-2.214 c 0.903,0.089 1.77,0.22 2.602,0.388 1.233,0.248 2.365,0.604 3.448,1.015 3.914,1.485 6.883,3.973 8.987,7.251 l -14.035,11.304 z"
           style="fill:#110f0d;fill-opacity:1;fill-rule:nonzero;stroke:none"
           id="path1578"
           inkscape:connector-curvature="0" /><path
           d="m 325.796,423.746 20.601,-1.246 c 1.901,3.179 0.949,10.683 -4.777,15.033 l -19.356,-5.576 c 1.729,-3.019 2.924,-5.795 3.532,-8.211"
           style="fill:#110f0d;fill-opacity:1;fill-rule:nonzero;stroke:none"
           id="path1580"
           inkscape:connector-curvature="0" /><path
           d="m 315.096,442.323 -0.083,-0.045 c 0.005,-0.007 0.011,-0.014 0.016,-0.022 1.737,-2.209 3.382,-4.415 4.942,-6.622 0.258,-0.386 0.498,-0.765 0.742,-1.145 l 19.492,5.614 c -0.003,6.196 -5.633,10.856 -8.103,11.418 z"
           style="fill:#110f0d;fill-opacity:1;fill-rule:nonzero;stroke:none"
           id="path1582"
           inkscape:connector-curvature="0" /><path
           d="m 333.185,390.414 -17.873,12.116 c -2.328,-2.104 -4.829,-4.048 -7.487,-5.789 l -0.088,-1.739 16.22,-13.066 c 4.744,0 8.405,4.432 9.228,8.478"
           style="fill:#110f0d;fill-opacity:1;fill-rule:nonzero;stroke:none"
           id="path1584"
           inkscape:connector-curvature="0" /><path
           d="m 224.348,524.207 c 2.288,3.415 4.771,6.608 7.895,9.605 -0.035,0.023 -25.955,17.09 -37.907,24.567 -21.679,13.512 -34.759,20.759 -34.89,20.829 l -3.058,-4.818 32.746,-23.697 c 9.749,-7.119 20.93,-15.358 35.214,-26.486"
           style="fill:#110f0d;fill-opacity:1;fill-rule:nonzero;stroke:none"
           id="path1586"
           inkscape:connector-curvature="0" /><path
           d="m 288.411,494.151 c -3.743,3.873 -7.338,5.745 -8.996,5.921 -0.056,0.041 -0.109,0.083 -0.165,0.126 l -15.143,-8.19 c 2.608,-2.2 5.238,-4.433 7.908,-6.725 z"
           style="fill:#110f0d;fill-opacity:1;fill-rule:nonzero;stroke:none"
           id="path1588"
           inkscape:connector-curvature="0" /><path
           d="m 269.732,507.45 c -4.972,-1.813 -9.041,-6.015 -10.892,-11.018 0.963,-0.804 1.945,-1.634 2.913,-2.447 l 15.025,8.125 c -0.093,0.07 -0.178,0.135 -0.274,0.208 -1.53,2.654 -3.138,4.573 -6.772,5.132"
           style="fill:#110f0d;fill-opacity:1;fill-rule:nonzero;stroke:none"
           id="path1590"
           inkscape:connector-curvature="0" /><path
           d="m 313.186,444.546 17.06,9.226 c -0.299,1.051 -0.651,2.007 -1.071,2.897 -1.73,3.675 -4.631,6.169 -9.838,9.037 l 2.517,-1.487 -17.552,-9.545 c 3.183,-3.403 6.155,-6.773 8.884,-10.128"
           style="fill:#110f0d;fill-opacity:1;fill-rule:nonzero;stroke:none"
           id="path1592"
           inkscape:connector-curvature="0" /><path
           d="m 313.312,472.632 c -0.945,0.749 -1.939,1.43 -2.965,2.035 l 0.089,-0.082 -16.165,-9.695 c 0.959,-0.95 1.906,-1.893 2.836,-2.833 1.558,-1.528 3.063,-3.042 4.523,-4.552 0.282,-0.291 0.541,-0.578 0.82,-0.868 l 16.887,9.067 c -0.907,1.698 -2.231,3.385 -3.791,4.937 -0.699,0.699 -1.446,1.365 -2.234,1.991"
           style="fill:#110f0d;fill-opacity:1;fill-rule:nonzero;stroke:none"
           id="path1594"
           inkscape:connector-curvature="0" /><path
           d="m 307.993,475.898 c -0.068,0.03 -0.134,0.07 -0.202,0.099 -1.018,2.889 -4.188,5.971 -8.603,7.33 -0.055,0.046 -0.107,0.095 -0.163,0.142 l -14.803,-9.03 c 2.666,-2.448 5.222,-4.852 7.663,-7.217 z"
           style="fill:#110f0d;fill-opacity:1;fill-rule:nonzero;stroke:none"
           id="path1596"
           inkscape:connector-curvature="0" /><path
           d="m 281.739,476.707 15.119,8.665 c -0.02,0.016 -0.041,0.033 -0.059,0.052 -0.488,1.758 -1.788,3.625 -3.354,5.128 -0.795,0.763 -1.653,1.418 -2.522,1.916 l -16.629,-9.161 c 2.357,-2.053 4.632,-4.067 6.824,-6.042 0.206,-0.186 0.416,-0.373 0.621,-0.558"
           style="fill:#110f0d;fill-opacity:1;fill-rule:nonzero;stroke:none"
           id="path1598"
           inkscape:connector-curvature="0" /><path
           d="m 346.548,419.628 -20.289,1.226 c 0.114,-2.054 -0.273,-4.049 -1.156,-6.11 l 18.347,-9.513 c 3.098,3.771 5.085,9.964 3.098,14.397"
           style="fill:#110f0d;fill-opacity:1;fill-rule:nonzero;stroke:none"
           id="path1600"
           inkscape:connector-curvature="0" /><path
           d="m 202.548,296.723 16.816,19.595 c -3.814,1.039 -7.747,2.271 -10.519,3.607 -0.377,0.179 -0.701,0.36 -1.04,0.542 l -18.851,-15.765 c 1.647,-3.906 8.615,-8.121 13.594,-7.979"
           style="fill:#110f0d;fill-opacity:1;fill-rule:nonzero;stroke:none"
           id="path1602"
           inkscape:connector-curvature="0" /><path
           d="m 219.881,291.495 17.355,20.891 c -3.319,0.578 -6.629,1.213 -9.911,1.932 -1.412,0.337 -3.095,0.74 -4.886,1.195 l -17.04,-19.857 c 2.206,-2.516 9.221,-5.2 14.482,-4.161"
           style="fill:#110f0d;fill-opacity:1;fill-rule:nonzero;stroke:none"
           id="path1604"
           inkscape:connector-curvature="0" /><path
           d="m 240.501,311.844 -17.512,-21.081 c 4.415,-3.724 8.882,-3.724 13.403,-2.501 l 17.441,21.69 c -4.419,0.544 -8.876,1.171 -13.332,1.892"
           style="fill:#110f0d;fill-opacity:1;fill-rule:nonzero;stroke:none"
           id="path1606"
           inkscape:connector-curvature="0" /><path
           d="m 223.747,345.153 c 0.564,0.246 1.145,0.476 1.719,0.713 l -19.79,16.242 c -4.133,0 -7.214,-2.981 -9.73,-6.8 l 20.539,-14.025 c 2.524,1.56 4.684,2.781 7.262,3.87"
           style="fill:#110f0d;fill-opacity:1;fill-rule:nonzero;stroke:none"
           id="path1608"
           inkscape:connector-curvature="0" /><path
           d="m 186.86,306.677 18.392,15.383 c -1.672,1.242 -2.531,2.353 -2.807,2.962 l -23.551,-2.515 c -1.751,-6.656 5.187,-14.565 7.966,-15.83"
           style="fill:#110f0d;fill-opacity:1;fill-rule:nonzero;stroke:none"
           id="path1610"
           inkscape:connector-curvature="0" /><path
           d="m 178.705,325.361 24.232,2.589 c 0.547,1.178 1.469,2.675 2.805,4.284 l -22.55,8.825 c -4.99,-3.188 -6.258,-9.878 -4.487,-15.698"
           style="fill:#110f0d;fill-opacity:1;fill-rule:nonzero;stroke:none"
           id="path1612"
           inkscape:connector-curvature="0" /><path
           d="m 184.746,343.519 23.102,-9.04 c 0.307,0.296 0.602,0.594 0.935,0.887 1.694,1.544 3.293,2.846 5.16,4.193 l -20.256,13.832 c -4.266,-1.129 -8.045,-3.982 -8.941,-9.872"
           style="fill:#110f0d;fill-opacity:1;fill-rule:nonzero;stroke:none"
           id="path1614"
           inkscape:connector-curvature="0" /><path
           d="m 236.055,373.918 14.021,-11.293 -1.287,14.521 c -4.889,0.413 -8.104,-0.42 -12.734,-3.228"
           style="fill:#110f0d;fill-opacity:1;fill-rule:nonzero;stroke:none"
           id="path1616"
           inkscape:connector-curvature="0" /><path
           d="m 208.342,363.62 20.162,-16.551 c 3.63,1.378 7.421,2.632 11.301,3.8 l -20.679,17.594 c -4.049,0 -8.783,-1.529 -10.784,-4.843"
           style="fill:#110f0d;fill-opacity:1;fill-rule:nonzero;stroke:none"
           id="path1618"
           inkscape:connector-curvature="0" /><path
           d="m 222.225,369.603 21.009,-17.726 c 2.522,0.723 5.067,1.423 7.608,2.107 l -0.416,4.686 -17.745,14.296 c -5.335,0 -7.215,-0.661 -10.456,-3.363"
           style="fill:#110f0d;fill-opacity:1;fill-rule:nonzero;stroke:none"
           id="path1620"
           inkscape:connector-curvature="0" /><path
           d="m 338.389,275.624 -21.377,-9.573 c 0.329,-1.572 0.455,-3.238 0.371,-4.947 l 22.848,-2.092 c 1.894,4.89 1.894,10.965 -1.842,16.612"
           style="fill:#110f0d;fill-opacity:1;fill-rule:nonzero;stroke:none"
           id="path1622"
           inkscape:connector-curvature="0" /><path
           d="m 312.165,274.727 c 1.603,-1.466 2.809,-3.124 3.642,-5.049 0.136,-0.281 0.248,-0.577 0.367,-0.869 l 21.182,9.485 c -0.671,4.972 -4.423,11.187 -8.631,12.827 l -17.107,-15.908 c 0.182,-0.162 0.364,-0.308 0.547,-0.486"
           style="fill:#110f0d;fill-opacity:1;fill-rule:nonzero;stroke:none"
           id="path1624"
           inkscape:connector-curvature="0" /><path
           d="m 326.972,230.538 -21.494,10.632 c -0.532,-0.453 -1.057,-0.903 -1.599,-1.358 l -0.201,-11.367 13.353,-6.512 c 4.17,0.569 9.173,4.78 9.941,8.605"
           style="fill:#110f0d;fill-opacity:1;fill-rule:nonzero;stroke:none"
           id="path1626"
           inkscape:connector-curvature="0" /><path
           d="m 303.376,211.409 c 3.533,0.296 9.488,4.207 11.153,8.562 l -10.907,5.32 z"
           style="fill:#110f0d;fill-opacity:1;fill-rule:nonzero;stroke:none"
           id="path1628"
           inkscape:connector-curvature="0" /><path
           d="m 339.877,256.175 -22.813,2.088 c -0.099,-0.535 -0.212,-1.073 -0.351,-1.608 -0.292,-1.082 -0.65,-2.116 -1.061,-3.116 l 20.808,-9.103 c 2.905,1.869 4.334,8.3 3.417,11.739"
           style="fill:#110f0d;fill-opacity:1;fill-rule:nonzero;stroke:none"
           id="path1630"
           inkscape:connector-curvature="0" /><path
           d="m 335.188,241.871 -20.825,9.026 c -1.348,-2.393 -3.11,-4.582 -5.385,-6.662 -0.373,-0.339 -0.777,-0.687 -1.164,-1.032 l 21.174,-10.473 c 4.272,2.229 5.879,5.535 6.2,9.141"
           style="fill:#110f0d;fill-opacity:1;fill-rule:nonzero;stroke:none"
           id="path1632"
           inkscape:connector-curvature="0" /><path
           d="m 251.877,196.613 13.885,-7.044 -1.807,17.681 c -5.855,-2.071 -10.403,-5.239 -12.078,-10.637"
           style="fill:#110f0d;fill-opacity:1;fill-rule:nonzero;stroke:none"
           id="path1634"
           inkscape:connector-curvature="0" /><path
           d="m 240.085,185.62 19.06,-9.591 c 2.425,2.105 4.874,4.2 7.359,6.279 l -0.396,3.881 -16.504,8.373 c -5.208,-1.84 -8.166,-4.941 -9.519,-8.942"
           style="fill:#110f0d;fill-opacity:1;fill-rule:nonzero;stroke:none"
           id="path1636"
           inkscape:connector-curvature="0" /><path
           d="m 232.109,180.147 c -1.156,-1.185 -2.382,-3.401 -2.713,-5.31 9.411,-1.942 17.928,-0.27 27.197,-0.725 l -18.645,9.383 c -2.563,-0.794 -4.197,-1.666 -5.839,-3.348"
           style="fill:#110f0d;fill-opacity:1;fill-rule:nonzero;stroke:none"
           id="path1638"
           inkscape:connector-curvature="0" /><path
           d="m 197.965,133.576 c 0.859,-0.031 1.498,-0.075 2.126,-0.149 5.263,-0.514 10.409,-2.162 15.29,-4.356 0.937,1.4 1.926,2.813 2.96,4.236 -5.66,1.901 -11.612,3.514 -17.824,4.68 -0.868,-1.456 -1.736,-2.915 -2.552,-4.411"
           style="fill:#ffffff;fill-opacity:1;fill-rule:nonzero;stroke:none"
           id="path1640"
           inkscape:connector-curvature="0" /></g></g></g></svg>