<?xml version="1.0" encoding="UTF-8" standalone="no"?>
<!-- Created with Inkscape (http://www.inkscape.org/) -->

<svg
   xmlns:dc="http://purl.org/dc/elements/1.1/"
   xmlns:cc="http://creativecommons.org/ns#"
   xmlns:rdf="http://www.w3.org/1999/02/22-rdf-syntax-ns#"
   xmlns:svg="http://www.w3.org/2000/svg"
   xmlns="http://www.w3.org/2000/svg"
   xmlns:sodipodi="http://sodipodi.sourceforge.net/DTD/sodipodi-0.dtd"
   xmlns:inkscape="http://www.inkscape.org/namespaces/inkscape"
   version="1.1"
   id="svg5599"
   xml:space="preserve"
   width="512"
   height="512"
   viewBox="0 0 512 512"
   sodipodi:docname="anchor_2.svg"
   inkscape:version="0.92.3 (2405546, 2018-03-11)"><metadata
     id="metadata5605"><rdf:RDF><cc:Work
         rdf:about=""><dc:format>image/svg+xml</dc:format><dc:type
           rdf:resource="http://purl.org/dc/dcmitype/StillImage" /><dc:title></dc:title></cc:Work></rdf:RDF></metadata><defs
     id="defs5603"><clipPath
       clipPathUnits="userSpaceOnUse"
       id="clipPath5615"><path
         d="M 0,600 H 600 V 0 H 0 Z"
         id="path5613"
         inkscape:connector-curvature="0" /></clipPath><clipPath
       clipPathUnits="userSpaceOnUse"
       id="clipPath5625"><path
         d="m 311.728,355.979 c -1.698,-0.279 -3.39,-0.139 -5.012,0.413 -0.063,-0.039 -0.128,-0.069 -0.192,-0.108 -0.102,-6.349 -0.203,-12.788 -0.25,-19.303 -0.064,-10.735 -0.132,-21.641 -0.201,-32.546 0.009,-5.836 0.016,-11.67 0.024,-17.48 1.354,0.341 2.754,0.413 4.185,0.203 1.052,1.169 2.299,2.05 3.701,2.661 0.029,4.856 0.06,9.725 0.089,14.596 -0.016,10.906 -0.031,21.813 -0.048,32.549 -0.013,6.618 -0.086,13.157 -0.159,19.605 -0.682,-0.263 -1.392,-0.468 -2.137,-0.59"
         id="path5623"
         inkscape:connector-curvature="0" /></clipPath><clipPath
       clipPathUnits="userSpaceOnUse"
       id="clipPath5643"><path
         d="m 305.70336,356.17106 h 7.998 V 286.5635 h -7.998 z"
         id="path5641"
         inkscape:connector-curvature="0" /></clipPath><linearGradient
       x1="0"
       y1="0"
       x2="1"
       y2="0"
       gradientUnits="userSpaceOnUse"
       gradientTransform="matrix(7.9980011,0,0,-7.9980011,305.70312,321.36728)"
       spreadMethod="pad"
       id="linearGradient5649"><stop
         style="stop-opacity:1;stop-color:#ffffff"
         offset="0"
         id="stop5645" /><stop
         style="stop-opacity:1;stop-color:#231f20"
         offset="1"
         id="stop5647" /></linearGradient></defs><sodipodi:namedview
     pagecolor="#ffffff"
     bordercolor="#666666"
     borderopacity="1"
     objecttolerance="10"
     gridtolerance="10"
     guidetolerance="10"
     inkscape:pageopacity="0"
     inkscape:pageshadow="2"
     inkscape:window-width="3840"
     inkscape:window-height="1888"
     id="namedview5601"
     showgrid="false"
     inkscape:zoom="0.96751812"
     inkscape:cx="156.24771"
     inkscape:cy="398.70436"
     inkscape:window-x="0"
     inkscape:window-y="60"
     inkscape:window-maximized="1"
     inkscape:current-layer="g5607" /><g
     id="g5607"
     inkscape:groupmode="layer"
     inkscape:label="anchor-rope-graphics-pdv"
     transform="matrix(1.3333333,0,0,-1.3333333,0,512)"><g
       id="g5609"
       transform="matrix(0.75181668,0,0,0.75181668,-37.833548,-51.587847)"><g
         id="g5611"
         clip-path="url(#clipPath5615)"><path
           d="m 280.96,206.822 v 0.007 z M 372.674,73.334 c -0.043,0.184 -0.086,0.361 -0.129,0.544 -0.146,0.613 -0.289,1.226 -0.437,1.83 l 13.607,3.299 c 0.198,-0.821 0.395,-1.652 0.592,-2.491 l -13.22,-3.085 z M 175.013,239.825 c -2.309,4.254 -4.318,8.67 -5.992,13.207 -3.309,9.089 -5.219,18.671 -5.585,28.29 -0.205,4.808 -0.023,9.62 0.493,14.388 0.498,4.769 1.384,9.485 2.516,14.127 l 1.72,7.039 0.821,-7.177 c 0.367,-3.182 1.238,-6.41 2.23,-9.568 0.504,-1.582 1.057,-3.152 1.64,-4.712 0.591,-1.558 1.211,-3.106 1.865,-4.642 0.655,-1.535 1.342,-3.057 2.051,-4.57 0.714,-1.511 1.461,-3.006 2.223,-4.494 0.779,-1.48 1.57,-2.952 2.399,-4.406 0.831,-1.453 1.673,-2.898 2.564,-4.315 0.873,-1.427 1.791,-2.828 2.731,-4.212 0.935,-1.389 1.917,-2.745 2.91,-4.093 l 1.523,-1.997 1.58,-1.953 c 1.076,-1.282 2.166,-2.556 3.314,-3.777 0.558,-0.625 1.145,-1.224 1.737,-1.816 0.584,-0.601 1.177,-1.195 1.795,-1.76 1.207,-1.162 2.474,-2.262 3.77,-3.327 1.298,-1.064 2.652,-2.059 4.033,-3.014 l 2.117,-1.364 2.188,-1.254 -2.227,1.183 -2.166,1.3 c -1.415,0.913 -2.805,1.868 -4.145,2.896 -1.334,1.027 -2.644,2.092 -3.897,3.222 -0.642,0.55 -1.257,1.128 -1.865,1.714 -0.615,0.578 -1.224,1.162 -1.808,1.773 -1.194,1.193 -2.332,2.441 -3.459,3.7 l -1.655,1.918 -1.603,1.963 c -1.045,1.328 -2.08,2.665 -3.066,4.036 -0.994,1.366 -1.965,2.752 -2.895,4.163 -0.943,1.403 -1.843,2.836 -2.728,4.275 -0.883,1.443 -1.731,2.907 -2.568,4.378 -0.819,1.481 -1.624,2.969 -2.395,4.476 -0.77,1.509 -1.514,3.03 -2.23,4.567 -0.713,1.538 -1.392,3.092 -2.047,4.659 -0.643,1.571 -1.26,3.156 -1.829,4.762 -0.431,1.241 -0.837,2.494 -1.215,3.759 -0.396,-2.569 -0.711,-5.148 -0.894,-7.737 -0.349,-4.637 -0.371,-9.291 -0.024,-13.912 0.657,-9.248 2.791,-18.343 6.225,-26.898 1.736,-4.269 3.785,-8.408 6.111,-12.382 2.342,-3.967 4.969,-7.762 7.821,-11.38 0.539,-0.685 1.094,-1.357 1.65,-2.028 5.321,-6.429 11.381,-12.243 17.903,-17.478 7.206,-5.789 14.978,-10.881 23.081,-15.385 8.096,-4.524 16.532,-8.452 25.149,-11.944 8.625,-3.477 17.44,-6.504 26.373,-9.164 4.158,-1.225 8.334,-2.39 12.537,-3.465 0.693,-1.98 1.907,-4.398 4.383,-6.28 2.113,-1.607 4.664,-2.469 7.781,-2.628 0.193,-0.519 0.426,-1.083 0.711,-1.662 l -0.643,-2.639 c -2.293,0.606 -4.55,1.167 -6.875,1.81 -2.318,0.636 -4.638,1.27 -6.925,1.948 -4.596,1.321 -9.159,2.762 -13.701,4.264 -9.08,3.031 -18.042,6.438 -26.817,10.315 -8.766,3.89 -17.351,8.234 -25.593,13.199 -8.247,4.944 -16.157,10.504 -23.481,16.791 -6.517,5.591 -12.57,11.767 -17.869,18.557 -0.655,0.837 -1.301,1.68 -1.93,2.535 -2.869,3.895 -5.496,7.972 -7.818,12.219 m 115.003,-3.873 h 0.335 l 0.187,-0.331 c 0.03,-0.072 0.118,-0.277 0.118,-3.382 v -5.298 c 0,-0.514 -0.065,-0.93 -0.194,-1.234 -0.252,-0.59 -0.696,-0.654 -0.877,-0.654 -0.144,0 -0.285,0.043 -0.429,0.109 -0.341,0.158 -0.678,0.497 -1.026,1.046 l -2.387,3.77 c -0.346,0.544 -0.402,1.262 -0.166,2.077 0.404,1.39 1.565,2.774 2.355,3.147 0.217,0.104 0.739,0.342 1.224,0.524 0.343,0.127 0.668,0.226 0.86,0.226 m -36.367,97.422 c 0.036,0.018 0.073,0.02 0.106,0.033 1.18,0.481 2.775,-0.472 3.545,-2.152 l 3.326,-7.276 c 0.826,-1.809 0.722,-3.53 -0.244,-4.003 -0.34,-0.167 -0.812,-0.203 -1.146,-0.203 h -10e-4 c -1.164,0 -2.779,0.426 -3.502,1.627 l -4.119,6.859 c -0.34,0.566 -0.389,1.305 -0.146,2.136 0.227,0.772 0.678,1.52 1.158,2.09 0.349,0.414 0.713,0.737 1.023,0.889 m 27.048,5.877 c 0.146,-0.003 0.332,-0.043 0.532,-0.152 0.11,-0.062 0.225,-0.139 0.338,-0.258 0.563,-0.59 0.889,-1.787 0.854,-3.127 l -0.213,-7.998 c -0.043,-1.668 -0.582,-3.465 -1.658,-3.465 l -1.506,0.002 c -1.336,0 -2.42,1.494 -2.515,3.402 l -0.393,7.991 c -0.051,1.046 0.285,2.041 0.924,2.728 0.495,0.534 1.138,0.838 1.814,0.856 l 1,0.012 z m 8.959,-4.031 v -5.928 c 0,-1.669 -0.06,-3.52 -0.135,-4.125 -0.065,-0.521 -0.678,-0.813 -1.365,-0.98 -0.758,-0.184 -1.604,-0.213 -1.905,-0.217 h -0.062 -0.022 -0.002 c -0.14,0 -0.264,0.004 -0.367,0.013 -1.135,0.094 -1.892,1.663 -1.76,3.649 l 0.527,7.981 c 0.124,1.875 2.186,3.245 3.21,3.245 l 0.12,-0.005 c 0.092,-0.01 0.175,-0.047 0.261,-0.078 0.984,-0.348 1.5,-1.979 1.5,-3.555 m 1.161,58.615 c 0.061,0.008 0.119,0.019 0.178,0.029 -0.219,-5.257 -0.412,-10.628 -0.597,-16.179 -0.427,0.109 -0.862,0.201 -1.307,0.256 -1.269,0.16 -2.525,0.089 -3.738,-0.204 -1.02,0.741 -2.162,1.285 -3.401,1.625 -0.961,0.262 -1.943,0.381 -2.896,0.374 -0.611,0.504 -1.293,0.941 -2.035,1.299 -0.442,0.214 -0.893,0.396 -1.348,0.54 -0.309,0.344 -0.646,0.67 -1.004,0.975 -0.312,0.264 -0.637,0.511 -0.97,0.733 -0.161,0.326 -0.344,0.648 -0.546,0.963 -0.15,0.236 -0.304,0.461 -0.465,0.675 -0.031,0.217 -0.066,0.435 -0.111,0.655 -0.025,0.132 -0.054,0.261 -0.084,0.388 0.03,0.109 0.059,0.219 0.086,0.33 0.037,0.154 0.07,0.307 0.102,0.457 0.133,0.159 0.266,0.326 0.396,0.5 0.219,0.293 0.422,0.594 0.606,0.899 0.369,0.207 0.732,0.443 1.086,0.703 0.456,0.335 0.879,0.701 1.262,1.093 0.574,0.151 1.146,0.358 1.704,0.617 0.635,0.293 1.229,0.643 1.768,1.041 0.697,0.059 1.402,0.198 2.101,0.409 0.748,0.226 1.453,0.528 2.098,0.897 0.756,-0.028 1.549,0.037 2.332,0.191 0.819,0.16 1.594,0.408 2.315,0.74 0.798,-0.102 1.625,-0.104 2.468,-0.006 m 56.797,178.691 h 0.003 c 0.486,0 0.927,-0.199 1.302,-0.536 0.661,-0.595 1.104,-1.635 1.149,-2.848 l 0.299,-7.994 c 0.074,-1.99 -0.737,-3.535 -1.888,-3.596 l -0.076,-0.002 c -1.02,0.002 -3.561,1.246 -3.756,3.211 l -0.79,7.961 c -0.067,0.677 0.204,1.39 0.781,2.062 0.633,0.739 1.623,1.383 2.43,1.63 0.196,0.06 0.381,0.103 0.546,0.112 m 16.336,-0.98 -0.054,-0.48 -1.534,-13.43 c -0.77,0.088 -1.54,0.166 -2.3,0.232 l 1.215,13.947 c 0.664,-0.058 1.336,-0.129 2.007,-0.202 0.224,-0.024 0.444,-0.042 0.666,-0.067 m -8.1,-13.922 -0.051,0.002 c -0.211,0.008 -0.515,0.016 -0.847,0.023 -0.933,0.022 -2.107,0.037 -2.162,0.037 -0.572,0 -0.584,0.065 -0.584,3.5 v 8 c 0,3.434 0.012,3.5 0.585,3.5 0.074,0 2.598,-0.033 3.559,-0.072 0.44,-0.019 0.854,-0.226 1.196,-0.601 0.603,-0.666 0.925,-1.784 0.857,-2.992 l -0.434,-7.99 c -0.093,-1.677 -0.786,-2.995 -1.684,-3.324 -0.14,-0.052 -0.287,-0.083 -0.435,-0.083 m 16.306,-101.961 c 0.119,-0.268 0.177,-0.559 0.174,-0.855 -0.003,-0.293 -0.064,-0.59 -0.187,-0.883 -0.36,-0.851 -1.163,-1.561 -2.205,-1.947 l -7.499,-2.786 c -0.841,-0.312 -1.683,-0.485 -2.373,-0.485 -0.994,0 -1.368,0.366 -1.505,0.675 -0.325,0.715 -0.054,3.194 1.557,4.271 l 6.653,4.444 c 0.311,0.209 0.683,0.314 1.105,0.314 0.945,0 2.043,-0.552 2.904,-1.22 0.653,-0.503 1.174,-1.072 1.376,-1.528 m -22.148,-39.99 c -0.159,-0.086 -0.335,-0.132 -0.517,-0.16 -0.089,-0.014 -0.177,-0.031 -0.268,-0.031 -1.038,0 -2.195,0.892 -2.875,2.22 l -3.648,7.12 c -0.892,1.744 -0.792,3.533 0.233,4.074 0.434,0.232 1.063,0.265 1.4,0.265 1.216,0 2.755,-0.413 3.431,-1.572 l 4.031,-6.912 c 0.348,-0.595 0.4,-1.363 0.154,-2.221 -0.185,-0.654 -0.554,-1.341 -0.973,-1.884 -0.313,-0.403 -0.652,-0.731 -0.968,-0.899 m -21.352,4.6 c 0,0.873 0.771,1.882 1.5,2.548 0.364,0.331 0.717,0.584 0.96,0.68 0.113,0.043 0.231,0.066 0.353,0.066 0.954,0 1.929,-1.362 2.473,-2.71 l 2.996,-7.419 c 0.257,-0.642 0.205,-1.417 -0.157,-2.239 -0.468,-1.065 -1.468,-2.166 -2.228,-2.452 -0.175,-0.064 -0.362,-0.098 -0.552,-0.098 -1.072,0 -2.214,1.067 -2.773,2.592 l -1.072,2.917 -0.435,1.189 c -0.586,1.599 -1.065,3.808 -1.065,4.926 m 17.817,-112.267 c -0.288,0.067 -0.546,0.218 -0.773,0.429 -0.133,0.124 -0.257,0.263 -0.361,0.434 -0.478,0.774 -0.595,1.921 -0.315,3.07 l 1.896,7.772 c 0.466,1.91 3.331,2.8 4.366,2.595 1.1,-0.225 1.649,-1.869 1.277,-3.826 l -1.491,-7.859 c -0.337,-1.774 -2.814,-2.665 -4.107,-2.665 -0.157,0 -0.294,0.019 -0.424,0.043 -0.02,0.004 -0.049,0.002 -0.068,0.007 m -15.817,7.826 v 1.372 c 0,1.698 0.421,4.395 0.939,6.01 l 0.295,0.922 c 0.076,0.238 0.167,0.463 0.266,0.678 0.682,1.449 1.866,2.312 2.847,2.003 1.068,-0.341 3.148,-2.546 2.557,-4.466 l -2.361,-7.645 c -0.496,-1.61 -2.14,-2.678 -3.011,-2.678 -0.011,0 -0.021,0.004 -0.032,0.005 -0.09,0.002 -0.176,0.012 -0.253,0.036 -0.983,0.314 -1.247,2.513 -1.247,3.763 m 0.957,-92.935 h -0.015 c -0.447,0.016 -0.692,0.024 -0.692,3.507 v 8.005 c 0,0.035 0.067,3.483 1.119,3.483 0.133,-0.004 0.265,-0.01 0.381,-0.131 0.242,-0.255 0.413,-1.024 0.363,-3.388 l -0.178,-7.998 c -0.013,-0.511 -0.053,-1.352 -0.185,-2.079 -0.137,-0.762 -0.377,-1.399 -0.793,-1.399 m -0.554,42.054 0.058,6.556 c 1.19,-0.257 2.406,-0.321 3.638,-0.164 1.403,0.178 2.731,0.618 3.955,1.309 1.24,-0.592 2.565,-0.939 3.95,-1.033 1.372,-0.088 2.659,0.069 3.922,0.462 1.055,-0.81 2.233,-1.412 3.515,-1.794 0.97,-0.29 1.965,-0.441 2.954,-0.452 0.645,-0.616 1.391,-1.15 2.22,-1.591 0.484,-0.257 0.984,-0.474 1.491,-0.649 0.335,-0.38 0.706,-0.741 1.104,-1.074 0.36,-0.302 0.736,-0.58 1.121,-0.825 0.207,-0.383 0.445,-0.761 0.705,-1.127 0.246,-0.34 0.508,-0.665 0.787,-0.967 0.093,-0.396 0.212,-0.793 0.358,-1.185 0.145,-0.398 0.315,-0.786 0.505,-1.155 -0.016,-0.427 -0.003,-0.862 0.034,-1.297 0.044,-0.469 0.114,-0.929 0.216,-1.37 -0.136,-0.449 -0.24,-0.918 -0.315,-1.398 -0.077,-0.505 -0.118,-1.01 -0.121,-1.509 -0.254,-0.442 -0.476,-0.912 -0.668,-1.401 -0.199,-0.51 -0.354,-1.026 -0.467,-1.544 -0.358,-0.395 -0.691,-0.831 -0.995,-1.299 -0.307,-0.475 -0.574,-0.967 -0.792,-1.463 -0.438,-0.326 -0.861,-0.695 -1.256,-1.102 -0.397,-0.407 -0.754,-0.841 -1.07,-1.292 -0.498,-0.235 -0.985,-0.519 -1.456,-0.843 -0.471,-0.326 -0.907,-0.683 -1.304,-1.066 -0.539,-0.137 -1.077,-0.323 -1.606,-0.553 -0.848,-0.372 -1.623,-0.841 -2.314,-1.396 h -0.014 c -0.874,0 -1.775,-0.125 -2.674,-0.372 -0.903,-0.247 -1.753,-0.605 -2.528,-1.067 -0.907,0.13 -1.84,0.131 -2.781,0.005 -0.976,-0.129 -1.908,-0.387 -2.773,-0.768 -0.853,0.237 -1.729,0.357 -2.607,0.357 -0.106,0 -0.21,-0.002 -0.306,-0.005 -1.063,-0.023 -2.083,-0.197 -3.045,-0.521 -0.251,0.093 -0.522,0.18 -0.822,0.265 l -0.949,0.267 c 0.19,7.514 0.259,15.08 0.33,23.061 m 10.065,-98.742 c -2.087,-0.69 -4.18,-1.362 -6.275,-2.021 -1.086,2.708 -2.618,4.75 -4.672,6.203 -0.84,0.592 -1.745,1.065 -2.717,1.429 3.659,0.96 7.306,1.972 10.934,3.041 8.93,2.66 17.747,5.687 26.372,9.164 8.617,3.492 17.052,7.42 25.148,11.944 8.104,4.504 15.873,9.596 23.079,15.385 7.204,5.782 13.855,12.262 19.556,19.506 2.851,3.618 5.477,7.413 7.818,11.38 2.327,3.974 4.376,8.113 6.113,12.382 3.434,8.555 5.569,17.65 6.224,26.898 0.348,4.621 0.325,9.275 -0.021,13.912 -0.187,2.588 -0.498,5.168 -0.898,7.736 -0.377,-1.265 -0.78,-2.518 -1.214,-3.758 -0.566,-1.606 -1.184,-3.191 -1.829,-4.762 -0.652,-1.567 -1.334,-3.121 -2.047,-4.659 -0.714,-1.537 -1.46,-3.058 -2.227,-4.567 -0.774,-1.507 -1.577,-2.995 -2.398,-4.476 -0.836,-1.471 -1.682,-2.935 -2.565,-4.378 -0.888,-1.439 -1.785,-2.872 -2.73,-4.275 -0.928,-1.411 -1.9,-2.797 -2.893,-4.163 -0.987,-1.371 -2.024,-2.708 -3.068,-4.036 l -1.601,-1.963 -1.655,-1.918 c -1.126,-1.259 -2.266,-2.507 -3.46,-3.7 -0.583,-0.611 -1.195,-1.195 -1.81,-1.773 -0.606,-0.586 -1.222,-1.164 -1.861,-1.714 -1.253,-1.13 -2.565,-2.195 -3.901,-3.222 -1.337,-1.028 -2.726,-1.983 -4.141,-2.896 l -2.166,-1.3 -2.231,-1.183 2.19,1.254 2.118,1.364 c 1.382,0.955 2.732,1.95 4.03,3.014 1.296,1.065 2.565,2.165 3.773,3.327 0.618,0.565 1.211,1.159 1.795,1.76 0.59,0.592 1.176,1.191 1.737,1.816 1.146,1.221 2.236,2.494 3.311,3.777 l 1.58,1.953 1.527,1.997 c 0.991,1.348 1.973,2.704 2.907,4.093 0.941,1.384 1.858,2.785 2.733,4.211 0.888,1.418 1.733,2.863 2.564,4.315 0.826,1.455 1.617,2.927 2.396,4.407 0.763,1.488 1.509,2.983 2.224,4.494 0.71,1.512 1.398,3.034 2.053,4.569 0.651,1.537 1.271,3.085 1.863,4.643 0.582,1.56 1.138,3.13 1.641,4.712 0.992,3.158 1.864,6.386 2.227,9.568 l 0.824,7.178 1.718,-7.04 c 1.133,-4.642 2.02,-9.358 2.518,-14.127 0.514,-4.768 0.695,-9.58 0.493,-14.388 -0.366,-9.619 -2.276,-19.201 -5.587,-28.29 -1.674,-4.537 -3.683,-8.953 -5.989,-13.207 -2.322,-4.247 -4.95,-8.324 -7.82,-12.219 -5.736,-7.798 -12.479,-14.811 -19.799,-21.092 -7.325,-6.287 -15.235,-11.847 -23.482,-16.791 -8.241,-4.965 -16.825,-9.309 -25.592,-13.199 -8.774,-3.877 -17.738,-7.284 -26.817,-10.315 m -0.294,-26.758 c -1.04,0 -2.156,0.324 -2.655,0.772 -0.862,0.774 -0.526,2.534 0.767,4.006 l 5.281,6.011 c 1.243,1.413 3.093,1.934 4.012,1.108 0.618,-0.553 1.154,-1.961 1.198,-3.139 0.033,-0.894 -0.203,-1.629 -0.68,-2.127 l -5.541,-5.771 c -0.54,-0.563 -1.363,-0.86 -2.381,-0.86 z m -12.192,9.736 h -10e-4 c -0.913,0 -1.831,0.223 -2.284,0.555 -0.958,0.702 -0.804,2.494 0.349,4.081 l 4.709,6.467 c 0.597,0.819 1.38,1.391 2.128,1.645 0.649,0.219 1.27,0.206 1.718,-0.122 0.014,-0.01 0.025,-0.026 0.04,-0.036 0.626,-0.493 1.258,-1.764 1.42,-2.88 0.13,-0.892 -0.025,-1.657 -0.445,-2.211 l -4.833,-6.377 c -0.74,-0.977 -2.073,-1.122 -2.801,-1.122 m -22.327,15.525 c -0.138,0.885 0.21,2.003 0.934,2.99 l 4.728,6.453 c 1.12,1.528 2.857,2.249 3.801,1.56 0.906,-0.659 2.174,-3.403 1.004,-5.038 l -4.658,-6.505 c -0.72,-1.007 -2.082,-1.157 -2.83,-1.157 h -0.002 c -0.516,0 -1.027,0.076 -1.467,0.197 -0.35,0.097 -0.66,0.22 -0.867,0.371 -0.283,0.205 -0.459,0.522 -0.563,0.892 -0.025,0.082 -0.068,0.148 -0.08,0.237 m -12.913,9.938 c -0.091,0.894 0.314,1.99 1.083,2.932 l 5.067,6.191 c 1.205,1.475 2.961,2.106 3.867,1.37 0.858,-0.696 1.976,-3.485 0.734,-5.062 l -4.945,-6.287 c -0.517,-0.66 -1.441,-1.023 -2.599,-1.023 -0.41,0 -0.819,0.055 -1.205,0.137 -0.582,0.122 -1.102,0.316 -1.409,0.565 -0.158,0.128 -0.283,0.286 -0.382,0.469 -0.11,0.207 -0.184,0.444 -0.211,0.708 m -22.866,27.851 c 0.534,0.752 1.444,1.264 2.493,1.404 l 7.931,1.057 c 0.407,0.054 0.812,0.081 1.198,0.081 0.866,0 2.343,-0.136 2.531,-1.047 0.163,-0.789 -0.747,-2.864 -2.421,-3.628 l -7.28,-3.318 c -0.229,-0.105 -0.481,-0.158 -0.747,-0.158 h -0.001 c -1.729,0.001 -3.837,2.309 -4.127,3.702 -0.134,0.653 0.015,1.33 0.423,1.907 m 19.715,8.356 c 0.196,-3.495 0.393,-6.719 0.588,-9.76 -0.314,0.533 -0.683,1.049 -1.11,1.545 -0.125,0.144 -0.252,0.283 -0.379,0.416 -0.08,0.156 -0.165,0.313 -0.257,0.471 -0.082,0.143 -0.166,0.282 -0.252,0.415 -0.043,0.155 -0.092,0.31 -0.144,0.466 -0.057,0.172 -0.116,0.34 -0.179,0.502 -0.015,0.184 -0.035,0.369 -0.06,0.558 -0.029,0.217 -0.061,0.427 -0.1,0.634 0.022,0.222 0.039,0.451 0.047,0.687 0.012,0.262 0.012,0.518 0.005,0.767 0.07,0.255 0.13,0.519 0.183,0.794 0.057,0.293 0.099,0.578 0.131,0.857 0.113,0.269 0.219,0.55 0.316,0.843 0.105,0.313 0.192,0.62 0.264,0.921 0.156,0.268 0.305,0.551 0.447,0.851 0.141,0.298 0.264,0.592 0.371,0.882 0.01,0.014 0.02,0.029 0.029,0.043 0.034,-0.631 0.065,-1.267 0.1,-1.892 m -22.054,50.045 0.45,7.989 c 0.104,1.878 2.29,3.404 3.341,3.452 h 0.001 c 1.242,0 1.989,-1.707 2.113,-3.395 l 0.588,-7.978 c 0.078,-1.062 -0.234,-2.075 -0.853,-2.782 -0.465,-0.529 -1.078,-0.839 -1.725,-0.875 l -0.012,-10e-4 h -1.953 c -0.425,0.017 -0.802,0.208 -1.116,0.552 -0.591,0.655 -0.903,1.79 -0.834,3.038 m -25.075,8.67 c 0.014,0.912 0.514,1.913 1.334,2.677 l 5.859,5.449 c 0.967,0.902 2.078,1.461 2.895,1.461 0.469,0 0.752,-0.181 0.906,-0.335 0.71,-0.703 1.262,-3.233 0.122,-4.711 l -4.884,-6.334 c -0.447,-0.576 -1.209,-0.881 -2.21,-0.881 -1.26,0 -2.801,0.511 -3.436,1.139 -0.392,0.391 -0.597,0.921 -0.586,1.535 m -9.516,16.359 c 0.42,0.808 1.327,1.484 2.42,1.807 l 7.669,2.27 c 0.611,0.18 1.23,0.275 1.793,0.275 1.136,0 1.912,-0.377 2.128,-1.033 0.331,-0.994 -0.314,-3.57 -2.031,-4.343 l -7.297,-3.277 c -0.262,-0.117 -0.549,-0.177 -0.853,-0.177 h -0.001 c -1.638,0 -3.617,1.79 -3.992,2.914 -0.166,0.5 -0.109,1.041 0.164,1.564 m -1.82,9.224 c 0.582,0.701 1.612,1.172 2.75,1.259 l 7.979,0.607 c 2.018,0.149 3.558,-0.521 3.674,-1.561 0.099,-0.907 -0.95,-3.42 -2.903,-3.832 l -7.826,-1.654 c -0.134,-0.029 -0.269,-0.042 -0.408,-0.042 -1.826,0 -3.61,2.477 -3.75,3.741 -0.058,0.519 0.111,1.032 0.484,1.482 m 41.379,28.658 c -0.056,-0.007 -0.117,-0.011 -0.182,-0.011 -1.13,0 -3.423,1.103 -3.777,2.906 l -1.537,7.85 c -0.129,0.66 0.074,1.383 0.588,2.091 0.731,1.009 2.058,1.921 2.953,2.032 1.334,0.177 2.549,-1.267 2.742,-3.199 l 0.801,-7.96 c 0.198,-1.978 -0.483,-3.573 -1.588,-3.709 m 12.029,35.655 c -0.515,0.746 -0.691,1.879 -0.466,3.035 l 1.511,7.855 c 0.369,1.903 2.993,3.018 4.029,2.878 1.108,-0.143 1.782,-1.746 1.565,-3.723 l -0.873,-7.951 c -0.199,-1.82 -2.85,-2.932 -4.227,-2.932 -0.125,0 -0.24,0.008 -0.338,0.025 -0.476,0.082 -0.89,0.362 -1.201,0.813 m 67.598,113.988 c 0.193,-0.874 0.095,-1.641 -0.288,-2.218 l -4.424,-6.666 c -0.57,-0.86 -1.762,-1.374 -3.186,-1.374 h -10e-4 c -0.708,0 -1.355,0.137 -1.727,0.364 -0.993,0.607 -0.986,2.402 0.016,4.085 l 4.092,6.874 c 0.974,1.639 2.69,2.462 3.768,1.805 0.71,-0.434 1.495,-1.721 1.75,-2.87 m -54.852,19.82 c 0.169,-1.472 0.5,-2.798 0.975,-4.005 l -0.102,0.072 -0.912,0.799 c -0.25,0.218 -0.5,0.434 -0.741,0.682 -1.329,1.335 -2.495,2.947 -3.458,4.767 -0.011,0.025 -0.021,0.051 -0.033,0.075 1.426,-1.178 2.961,-1.905 4.271,-2.39 m 2.348,26.239 c 1.938,0.236 3.448,-0.373 3.609,-1.381 0.139,-0.889 -0.786,-3.424 -2.705,-3.942 l -5.5,-1.48 c -0.478,-0.127 -0.902,-0.192 -1.263,-0.192 -0.784,0 -1.112,0.31 -1.248,0.571 -0.131,0.248 -0.201,0.662 0.195,1.238 0.07,0.104 0.166,0.232 0.248,0.346 0.643,0.898 1.564,2.084 2.203,2.826 0.025,0.027 0.059,0.053 0.083,0.081 0.841,0.892 2.726,1.731 4.378,1.933 m 8.342,-30.73 5.375,5.925 c 0.563,0.621 1.483,0.965 2.592,0.965 0.938,0 1.912,-0.258 2.363,-0.625 0.89,-0.725 0.631,-2.451 -0.601,-4.015 l -4.943,-6.289 c -0.488,-0.62 -1.326,-0.95 -2.424,-0.95 -1.132,0 -2.411,0.371 -2.972,0.862 -0.351,0.308 -0.552,0.749 -0.582,1.28 -0.054,0.903 0.393,1.966 1.192,2.847 m -5.863,6.148 6.115,5.16 c 0.519,0.439 1.242,0.672 2.086,0.672 1.089,0 2.332,-0.406 2.83,-0.924 0.777,-0.81 0.307,-2.482 -1.099,-3.891 l -5.647,-5.666 c -0.444,-0.445 -1.108,-0.681 -1.914,-0.681 -1.383,0 -2.95,0.683 -3.492,1.297 -0.318,0.359 -0.463,0.834 -0.424,1.376 0.066,0.903 0.643,1.897 1.545,2.657 m -6.678,3.212 c -0.266,0.417 -0.336,0.924 -0.207,1.467 0.209,0.883 0.933,1.768 1.935,2.367 l 6.869,4.099 c 0.436,0.261 0.954,0.394 1.54,0.394 1.342,0 2.783,-0.709 3.234,-1.344 0.635,-0.894 -0.086,-2.467 -1.676,-3.66 l -6.398,-4.801 c -0.383,-0.287 -0.861,-0.432 -1.424,-0.432 h -0.002 c -1.474,0 -3.322,1.044 -3.871,1.91 m 10.084,12.7 c 0.451,-0.965 -0.543,-2.369 -2.315,-3.268 l -7.136,-3.615 c -0.287,-0.146 -0.612,-0.22 -0.961,-0.22 -1.627,0 -3.592,1.629 -4.012,2.693 -0.187,0.476 -0.162,1.005 0.075,1.529 0.375,0.83 1.247,1.556 2.332,1.943 l 7.534,2.697 c 0.294,0.106 0.614,0.159 0.95,0.159 1.527,0 3.172,-1.146 3.533,-1.918 m 18.4,-24.152 -4.313,-6.736 c -0.683,-1.065 -2.118,-1.224 -2.914,-1.224 -0.957,0 -1.925,0.229 -2.406,0.567 -0.373,0.263 -0.616,0.672 -0.702,1.186 -0.147,0.89 0.183,2 0.887,2.97 l 4.699,6.475 c 0.82,1.129 2.393,1.25 3.031,1.25 0.618,0 1.196,-0.105 1.609,-0.277 0.106,-0.045 0.211,-0.091 0.293,-0.145 0.225,-0.149 0.387,-0.362 0.5,-0.613 0.373,-0.838 0.143,-2.164 -0.684,-3.453 m 4.677,17.707 c -0.017,-0.239 -0.031,-0.5 -0.038,-0.756 -0.008,-0.137 -0.007,-0.273 -0.005,-0.415 0.002,-0.134 0.005,-0.277 -0.002,-0.376 -0.052,-0.312 -0.089,-0.643 -0.127,-0.991 l -0.026,-0.255 c -0.232,-1.569 -0.635,-3.658 -1.723,-5.92 -0.445,-0.958 -0.99,-1.856 -1.577,-2.719 -0.869,1.85 -2.003,3.355 -3.473,4.526 -1.637,1.306 -3.552,2.154 -5.837,2.579 -0.397,2.19 -1.204,4.041 -2.457,5.641 -1.195,1.525 -2.695,2.722 -4.57,3.642 0.213,1.987 0.022,3.807 -0.582,5.547 -0.574,1.653 -1.474,3.138 -2.742,4.52 0.192,0.368 0.369,0.74 0.526,1.113 l 0.585,1.389 h -1.552 c 0.898,0.221 1.712,0.36 2.47,0.408 l 0.116,0.014 c 0.292,0.053 0.607,0.06 0.874,0.06 l 0.75,-0.007 c 0.125,0 0.249,0.002 0.373,0.006 l 2.079,-0.135 c 0.09,-0.006 0.182,-0.01 0.255,-0.016 l 0.043,-0.014 c 0.27,-0.078 0.54,-0.132 0.756,-0.156 0.09,-0.018 0.167,-0.025 0.251,-0.023 0.188,-0.055 0.375,-0.104 0.554,-0.141 0.343,-0.078 0.684,-0.149 0.986,-0.209 0.301,-0.1 0.601,-0.199 0.899,-0.279 1.128,-0.312 2.213,-0.797 3.261,-1.266 l 1.701,-0.916 c 0.219,-0.16 0.449,-0.31 0.676,-0.459 0.255,-0.164 0.509,-0.328 0.707,-0.481 0.204,-0.177 0.418,-0.339 0.634,-0.5 0.255,-0.192 0.496,-0.372 0.669,-0.544 0.183,-0.188 0.374,-0.366 0.568,-0.543 0.211,-0.194 0.422,-0.385 0.642,-0.637 1.533,-1.584 2.432,-3.357 2.961,-4.526 l 0.436,-1.03 c 0.062,-0.18 0.106,-0.356 0.149,-0.528 0.037,-0.146 0.073,-0.287 0.111,-0.41 l 0.248,-0.871 c 0.037,-0.121 0.048,-0.238 0.065,-0.348 0.015,-0.107 0.028,-0.212 0.045,-0.289 l 0.24,-1.381 0.015,10e-4 0.064,-2.092 c 0.003,-0.061 0.006,-0.123 0.006,-0.17 z m -5.148,-30.08 c -0.006,0 -0.011,0.001 -0.017,0.001 -0.763,0.002 -1.455,0.141 -1.856,0.373 -0.01,0.006 -0.019,0.014 -0.029,0.02 -0.373,0.228 -0.637,0.601 -0.763,1.088 -0.228,0.873 0.006,2.01 0.623,3.043 l 4.096,6.871 c 1.014,1.698 3.895,1.77 4.877,1.232 1.012,-0.552 1.084,-2.342 0.163,-4.072 l -3.754,-7.063 c -0.499,-0.935 -1.748,-1.493 -3.34,-1.493 m 15.384,-13.201 c 1.812,-1.067 3.79,-1.622 6.036,-1.688 0.784,-1.979 1.908,-3.565 3.421,-4.832 1.317,-1.101 2.865,-1.911 4.612,-2.416 0.082,-0.736 0.224,-1.438 0.427,-2.115 -2.407,0.267 -4.822,0.515 -7.236,0.734 -6.315,0.582 -13.071,1.015 -20.095,1.287 -0.301,4.449 -0.59,8.435 -0.858,11.89 l -0.43,5.112 c 0.951,-0.916 2.008,-1.656 3.195,-2.221 1.977,-0.939 4.135,-1.308 6.509,-1.099 1.123,-2.037 2.574,-3.561 4.419,-4.652 m -9.376,-98.308 c -0.103,-0.022 -0.225,-0.034 -0.363,-0.034 -1.19,0 -3.615,0.922 -4.004,2.683 l -1.716,7.814 c -0.149,0.673 0.032,1.424 0.519,2.173 0.639,0.98 1.802,1.906 2.595,2.066 1.225,0.24 2.474,-1.09 2.843,-3 l 1.517,-7.855 c 0.371,-1.924 -0.239,-3.614 -1.391,-3.847 m 43.825,-41.033 c -1.105,1.329 -1.803,3.061 -1.003,3.796 0.39,0.361 1.304,0.614 2.222,0.614 0.659,0 1.603,-0.128 2.371,-0.736 l 6.274,-4.966 c 0.499,-0.393 0.779,-1.046 0.811,-1.883 0.057,-1.5 -0.659,-3.245 -1.337,-3.872 -0.394,-0.362 -0.905,-0.553 -1.479,-0.553 -0.967,0 -1.992,0.541 -2.746,1.448 z m -2.993,-10.708 -2.748,7.514 c -0.444,1.216 -0.909,3.388 0.167,3.818 l 0.966,0.498 c 0.145,0.09 0.348,0.146 0.572,0.146 0.864,0 1.968,-0.849 2.817,-2.16 l 4.342,-6.719 c 0.59,-0.914 0.808,-1.961 0.599,-2.875 -0.147,-0.654 -0.517,-1.19 -1.041,-1.51 l -1.964,-1.008 c -0.283,-0.116 -0.539,-0.165 -0.8,-0.165 -1.203,0 -2.372,0.99 -2.91,2.461 m -39.99,25.871 -0.25,15.962 -0.149,6.747 c 0.981,0.288 1.906,0.71 2.759,1.269 1.299,-0.39 2.616,-0.524 4.042,-0.382 1.307,0.13 2.548,0.491 3.697,1.074 1.166,-0.485 2.404,-0.754 3.691,-0.796 1.27,-0.043 2.456,0.133 3.613,0.514 1.039,-0.626 2.176,-1.064 3.39,-1.304 1.212,-0.239 2.429,-0.264 3.626,-0.076 0.933,-0.795 1.995,-1.417 3.167,-1.852 0.967,-0.358 1.962,-0.571 2.966,-0.635 0.636,-0.644 1.369,-1.205 2.189,-1.672 0.6,-0.341 1.22,-0.619 1.849,-0.828 0.413,-0.516 0.887,-1 1.409,-1.442 0.522,-0.441 1.073,-0.824 1.642,-1.142 0.307,-0.578 0.677,-1.136 1.102,-1.664 0.426,-0.526 0.894,-1.004 1.39,-1.423 0.191,-0.62 0.448,-1.237 0.768,-1.835 0.316,-0.595 0.681,-1.15 1.089,-1.652 0.069,-0.644 0.203,-1.289 0.397,-1.926 0.191,-0.631 0.438,-1.233 0.732,-1.798 -0.053,-0.628 -0.049,-1.272 0.013,-1.918 0.062,-0.634 0.177,-1.253 0.344,-1.844 -0.176,-0.579 -0.302,-1.184 -0.373,-1.803 -0.07,-0.59 -0.091,-1.178 -0.063,-1.75 -0.276,-0.49 -0.517,-1.012 -0.717,-1.559 -0.193,-0.525 -0.341,-1.056 -0.446,-1.583 -0.363,-0.384 -0.705,-0.806 -1.013,-1.256 -0.309,-0.446 -0.581,-0.913 -0.811,-1.388 -0.449,-0.281 -0.887,-0.603 -1.302,-0.959 -0.431,-0.375 -0.829,-0.777 -1.18,-1.198 -0.542,-0.172 -1.082,-0.395 -1.61,-0.665 -0.958,-0.49 -1.846,-1.117 -2.649,-1.865 -1.285,0.502 -2.613,0.777 -3.96,0.821 l -0.279,0.003 c -1.658,0 -3.282,-0.349 -4.837,-1.041 -1.501,1.279 -3.19,2.143 -5.028,2.572 -1.996,0.468 -4.008,0.391 -6.067,-0.23 -1.506,1.635 -3.266,2.773 -5.241,3.385 -2.035,0.631 -4.192,0.668 -6.437,0.102 -0.171,0.2 -0.348,0.396 -0.531,0.587 l -0.851,0.891 c -0.022,1.817 -0.048,3.659 -0.081,5.559 m 3.984,-49.984 0.803,-7.962 c 0.195,-1.91 -1.891,-3.729 -3.009,-3.911 -0.069,-0.012 -0.135,-0.017 -0.204,-0.017 -1.054,0 -2.059,1.317 -2.39,3.13 l -1.435,7.871 c -0.119,0.655 0.091,1.37 0.607,2.072 0.803,1.093 2.177,1.93 2.957,2.025 1.284,0.163 2.474,-1.273 2.671,-3.208 M 290.454,177.938 c -1.072,0 -2.233,0.331 -2.763,0.787 -0.329,0.284 -0.52,0.698 -0.555,1.197 -0.065,0.896 0.377,1.978 1.177,2.895 l 5.258,6.028 c 1.193,1.366 2.859,1.939 3.775,1.327 0.044,-0.029 0.093,-0.047 0.135,-0.082 0.287,-0.247 0.589,-0.752 0.821,-1.357 0.441,-1.16 0.598,-2.714 -0.246,-3.722 l -5.143,-6.13 c -0.517,-0.617 -1.367,-0.943 -2.459,-0.943 m -8.895,6.246 c -0.321,0.295 -0.498,0.715 -0.519,1.216 -0.033,0.899 0.442,1.965 1.273,2.854 l 5.457,5.85 c 1.292,1.383 3.094,1.901 3.944,1.117 0.811,-0.748 1.742,-3.6 0.406,-5.093 l -5.334,-5.961 c -0.508,-0.566 -1.309,-0.865 -2.32,-0.865 -0.334,0 -0.68,0.037 -1.017,0.098 -0.765,0.141 -1.477,0.421 -1.864,0.763 -0.008,0.008 -0.02,0.014 -0.026,0.021 m 5.335,15.587 0.829,-0.795 c 0.827,-0.794 -0.47,-2.597 -1.367,-3.538 l -5.521,-5.789 c -0.795,-0.835 -1.961,-1.727 -2.842,-1.727 -0.345,0 -0.559,0.138 -0.68,0.255 l -0.374,0.361 c -0.75,0.726 -1.253,1.232 -1.348,1.354 -0.572,0.741 -0.812,1.651 -0.672,2.562 0.142,0.911 0.642,1.707 1.408,2.241 l 6.567,4.573 c 0.919,0.639 1.945,1.021 2.75,1.021 0.701,0 1.066,-0.281 1.25,-0.518 m 5.82,77.713 c 1.082,0.415 2.537,-0.716 3.228,-2.512 l 2.881,-7.463 c 0.248,-0.641 0.184,-1.409 -0.183,-2.223 -0.485,-1.066 -1.495,-2.161 -2.256,-2.44 -0.166,-0.061 -0.34,-0.091 -0.52,-0.091 -1.06,0 -2.187,1.081 -2.74,2.629 l -2.692,7.533 c -0.673,1.88 1.255,4.177 2.282,4.567 m 31.192,83.98 c -0.105,-0.024 -2.384,-0.533 -3.219,-0.716 -0.093,-0.02 -0.189,-0.03 -0.285,-0.03 -1.049,0 -2.086,1.266 -2.463,3.011 l -1.684,7.821 c -0.416,1.93 1.705,3.953 2.699,4.176 l 1.776,0.386 c 0.384,0 0.597,0 1.333,-3.275 l 1.753,-7.807 c 0.766,-3.412 0.554,-3.46 0.09,-3.566 m 1.462,-87.927 c -1.045,0 -2.111,1.179 -2.595,2.865 l -2.206,7.691 c -0.326,1.136 -0.254,2.287 0.191,3.077 0.264,0.47 0.643,0.783 1.099,0.907 0.173,0.047 0.379,0.07 0.613,0.07 1.237,0 3.715,-0.736 4.113,-2.51 l 1.761,-7.804 c 0.432,-1.924 -1.617,-3.975 -2.623,-4.249 -0.115,-0.031 -0.234,-0.047 -0.353,-0.047 m -18.227,-76.315 c -0.089,4.41 -0.183,8.968 -0.278,13.655 -0.177,9.373 -0.384,19.257 -0.491,29.481 -0.084,7.278 -0.16,14.735 -0.211,22.295 0.805,0.122 1.594,0.326 2.361,0.632 1.61,0.643 3.002,1.638 4.15,2.963 0.386,-0.047 0.767,-0.067 1.149,-0.074 -0.089,-8.776 -0.216,-17.423 -0.353,-25.831 -0.154,-10.225 -0.408,-20.109 -0.632,-29.481 -0.117,-4.685 -0.232,-9.244 -0.343,-13.653 -0.14,-4.409 -0.277,-8.669 -0.41,-12.759 -0.029,-1.046 -0.062,-2.079 -0.095,-3.101 -0.426,0.055 -0.863,0.102 -1.315,0.128 -0.764,2.226 -1.84,4.022 -3.25,5.456 -0.092,3.328 -0.186,6.758 -0.282,10.289 m -7.796,82.857 1.928,0.724 c 0.726,0 1.509,-1.581 2.04,-2.907 l 2.966,-7.43 c 1.298,-3.248 0.574,-3.539 0.334,-3.636 l -2.936,-1.171 c -0.129,-0.051 -0.266,-0.077 -0.407,-0.077 -1.041,0.001 -2.038,1.339 -2.562,2.665 l -2.941,7.44 c -0.692,1.747 0.634,4.016 1.578,4.392 m -5.727,89.283 c 0.116,1.95 2.598,3.374 3.614,3.374 1.129,-0.002 2.008,-1.503 2.045,-3.493 l 0.152,-7.998 c 0.021,-1.189 -0.156,-2.669 -0.717,-3.248 -0.213,-0.222 -0.44,-0.271 -0.59,-0.273 h -0.002 -0.947 -0.91 c -0.02,0.002 -0.036,0.007 -0.055,0.008 -0.851,0.053 -1.619,0.423 -2.188,1.057 -0.622,0.69 -0.946,1.634 -0.888,2.587 z m 13.518,-10.45 c -0.123,-0.155 -0.262,-0.28 -0.407,-0.389 -0.251,-0.186 -0.529,-0.307 -0.828,-0.342 -0.044,-0.004 -0.09,-0.004 -0.138,-0.006 -0.022,0 -0.039,-0.004 -0.061,-0.004 -1.197,0 -3.994,1.194 -4.115,3.16 l -0.492,7.986 c -0.121,1.962 2.217,3.666 3.248,3.782 l 0.142,0.007 c 1.098,0 2.067,-1.366 2.305,-3.248 l 1.006,-7.937 c 0.147,-1.172 -0.1,-2.297 -0.66,-3.009 m 12.98,-87.013 c -0.183,-0.061 -0.42,-0.091 -0.699,-0.091 h -10e-4 c -1.326,0 -3.438,0.675 -3.976,2.179 l -2.691,7.534 c -0.226,0.63 -0.141,1.38 0.245,2.168 0.58,1.183 1.719,2.223 2.417,2.453 1.148,0.369 2.556,-0.815 3.143,-2.659 l 2.42,-7.625 c 0.602,-1.898 0.234,-3.6 -0.858,-3.959 m -14.775,8.98 c 0.465,1.055 1.447,2.143 2.187,2.427 1.133,0.434 2.618,-0.698 3.291,-2.493 l 2.814,-7.489 c 0.688,-1.836 0.358,-3.605 -0.753,-4.03 -0.234,-0.09 -0.54,-0.136 -0.909,-0.136 -1.23,0 -3.272,0.542 -3.861,2.035 l -2.935,7.443 c -0.254,0.644 -0.196,1.42 0.166,2.243 m 6.388,75.1 c 0.745,0.122 1.455,0.327 2.135,0.591 0.074,-6.449 0.148,-12.989 0.16,-19.606 0.016,-10.736 0.033,-21.643 0.047,-32.549 -0.029,-4.871 -0.058,-9.74 -0.089,-14.596 -1.402,-0.611 -2.647,-1.492 -3.7,-2.661 -1.43,0.21 -2.832,0.138 -4.185,-0.203 -0.008,5.81 -0.016,11.644 -0.024,17.48 0.07,10.905 0.137,21.811 0.202,32.547 0.045,6.514 0.148,12.953 0.249,19.302 0.063,0.038 0.129,0.067 0.192,0.108 1.623,-0.553 3.314,-0.692 5.013,-0.413 m 3.769,4.269 c -0.297,-0.44 -0.694,-0.719 -1.149,-0.806 -0.113,-0.021 -0.239,-0.033 -0.378,-0.033 -1.27,0 -3.789,0.967 -4.081,2.811 l -1.256,7.901 c -0.311,1.964 1.92,3.867 2.965,4.067 1.184,0.222 2.384,-1.121 2.766,-3.032 l 1.57,-7.843 c 0.232,-1.167 0.07,-2.312 -0.437,-3.065 m -5.097,-184.933 -4.783,-6.414 c -0.527,-0.707 -1.496,-1.096 -2.726,-1.096 -0.983,0 -1.973,0.252 -2.465,0.627 -0.342,0.26 -0.557,0.658 -0.622,1.15 -0.117,0.89 0.257,1.998 1.001,2.965 l 4.88,6.34 c 0.924,1.203 2.204,1.861 3.16,1.73 0.247,-0.034 0.478,-0.106 0.672,-0.254 0.223,-0.172 0.467,-0.48 0.69,-0.869 0.647,-1.14 1.088,-2.978 0.193,-4.179 m 12.853,-9.22 -4.606,-6.541 c -0.729,-1.036 -2.126,-1.192 -2.894,-1.192 -0.906,0 -1.787,0.209 -2.244,0.533 -0.345,0.243 -0.57,0.625 -0.652,1.104 -0.15,0.882 0.184,2.007 0.896,3.01 l 4.629,6.525 c 0.728,1.029 1.728,1.686 2.602,1.822 0.447,0.071 0.862,0.014 1.188,-0.215 0.139,-0.098 0.287,-0.252 0.433,-0.441 0.814,-1.031 1.613,-3.232 0.648,-4.605 m -1.026,-12.31 c -0.765,0 -1.495,0.155 -1.977,0.397 -0.084,0.042 -0.177,0.081 -0.242,0.128 -0.396,0.279 -0.606,0.739 -0.653,1.289 -0.071,0.823 0.235,1.851 0.914,2.812 l 4.611,6.537 c 1.097,1.554 2.827,2.284 3.804,1.598 0.641,-0.453 1.295,-1.7 1.486,-2.835 0.15,-0.895 0.015,-1.669 -0.396,-2.239 l -4.658,-6.503 c -0.736,-1.031 -2.127,-1.184 -2.889,-1.184 m 54.343,98.866 c -0.13,0 -0.258,0.014 -0.384,0.04 l -7.822,1.684 c -1.797,0.387 -3.061,2.541 -3.01,3.472 0.064,1.117 1.882,1.625 3.545,1.625 l 8.021,-0.014 c 1.1,-0.003 2.129,-0.4 2.756,-1.062 0.439,-0.467 0.655,-1.024 0.624,-1.61 -0.073,-1.327 -1.886,-4.135 -3.73,-4.135 m -37.68,-29.637 c -1.191,10e-4 -4.143,1.336 -4.168,3.35 l -0.107,7.998 c -0.024,1.958 2.405,3.554 3.445,3.624 h 0.003 c 1.141,0 2.066,-1.438 2.233,-3.345 l 0.692,-7.972 c 0.106,-1.191 -0.182,-2.312 -0.768,-2.996 -0.341,-0.398 -0.764,-0.624 -1.22,-0.655 z m 10.196,2.031 c -0.296,-0.466 -0.701,-0.766 -1.179,-0.867 -0.131,-0.029 -0.283,-0.042 -0.45,-0.042 -1.358,0 -4.027,0.954 -4.282,2.779 l -1.109,7.924 c -0.268,1.926 1.842,3.821 2.824,4.028 1.052,0.22 2.22,-1.067 2.679,-2.994 l 1.857,-7.783 c 0.27,-1.14 0.143,-2.277 -0.34,-3.045 m 8.666,2.761 c -0.22,-0.52 -0.58,-0.891 -1.046,-1.074 -0.35,-0.136 -0.792,-0.166 -1.101,-0.166 -1.359,0 -3.551,0.563 -4.024,2.111 l -2.327,7.651 c -0.566,1.854 1.181,4.053 2.098,4.412 1.001,0.391 2.369,-0.709 3.132,-2.517 l 3.111,-7.371 c 0.451,-1.07 0.509,-2.208 0.157,-3.046 m 8.459,4.871 c -0.088,-0.613 -0.372,-1.109 -0.826,-1.436 -0.551,-0.395 -1.644,-0.662 -2.719,-0.662 -1.444,0.001 -2.486,0.457 -2.934,1.285 l -3.791,7.045 c -0.879,1.636 0.049,4.035 0.849,4.612 0.8,0.577 2.355,-0.183 3.563,-1.717 l 4.956,-6.282 c 0.691,-0.877 1.029,-1.941 0.902,-2.845 m 0.905,4.432 -5.582,5.731 c -1.296,1.331 -1.065,3.889 -0.457,4.662 0.159,0.203 0.478,0.446 1.079,0.446 0.788,0 1.841,-0.417 2.816,-1.116 l 6.5,-4.662 c 0.907,-0.65 1.524,-1.579 1.653,-2.482 0.088,-0.614 -0.051,-1.171 -0.397,-1.613 -0.597,-0.759 -2.371,-1.607 -3.847,-1.607 -0.745,0 -1.356,0.221 -1.765,0.641 m 10.783,9.644 c -0.425,-1.08 -2.486,-2.8 -4.12,-2.8 -0.373,0 -0.711,0.084 -1.006,0.252 l -6.961,3.941 c -1.615,0.914 -2.126,3.411 -1.769,4.312 0.215,0.54 0.855,0.838 1.808,0.838 0.635,0 1.384,-0.136 2.108,-0.384 l 7.567,-2.588 c 1.053,-0.359 1.911,-1.069 2.292,-1.897 0.262,-0.569 0.29,-1.147 0.081,-1.674 m 1.411,16.64 c -0.54,-0.752 -1.472,-1.267 -2.555,-1.412 l -7.929,-1.062 c -0.139,-0.02 -0.277,-0.028 -0.417,-0.028 -1.707,10e-4 -3.346,1.38 -3.584,2.127 -0.328,1.025 1.197,2.145 2.754,2.753 l 7.453,2.908 c 0.211,0.082 0.44,0.124 0.677,0.124 1.81,0 3.776,-2.412 4.018,-3.644 0.117,-0.601 -0.032,-1.228 -0.417,-1.766 m -3.811,11.646 c 0.329,-0.505 0.427,-1.132 0.273,-1.767 -0.217,-0.899 -0.891,-1.726 -1.847,-2.271 l -6.948,-3.963 c -0.526,-0.298 -1.143,-0.449 -1.835,-0.449 -1.079,0 -2.248,0.39 -2.664,0.889 -0.705,0.841 0.289,2.456 1.508,3.599 l 5.836,5.472 c 0.377,0.353 0.889,0.532 1.521,0.532 1.563,0 3.553,-1.117 4.156,-2.042 m -10.229,8.213 c 1.122,0 2.3,-0.294 2.869,-0.715 0.452,-0.335 0.73,-0.839 0.806,-1.455 0.113,-0.904 -0.246,-1.96 -0.955,-2.821 l -5.079,-6.18 c -1.004,-1.22 -2.699,-1.315 -3.195,-1.315 -0.326,0 -0.932,0.036 -1.321,0.271 -0.969,0.585 -0.64,2.428 0.185,3.946 l 3.826,7.026 c 0.438,0.802 1.453,1.243 2.864,1.243 m -4.932,2.885 c 0.357,-0.838 0.307,-1.983 -0.136,-3.062 l -3.036,-7.403 c -1.235,-3.014 -1.315,-3.045 -1.685,-3.045 h -0.01 l -0.193,0.038 c -0.092,0.038 -1.892,0.745 -2.593,0.979 -1.011,0.335 -1.339,2.023 -0.762,3.925 l 2.319,7.657 c 0.474,1.561 2.653,2.128 4,2.128 0.297,0 0.724,-0.028 1.063,-0.161 0.457,-0.178 0.813,-0.544 1.033,-1.056 m -15.534,-7.172 0.938,7.943 c 0.219,1.841 2.956,2.844 4.303,2.844 0.159,0 0.306,-0.013 0.43,-0.038 0.492,-0.1 0.915,-0.404 1.22,-0.881 0.493,-0.766 0.631,-1.896 0.369,-3.025 l -1.805,-7.794 c -0.42,-1.812 -2.713,-2.801 -3.775,-2.801 h -0.001 c -0.077,0 -0.147,0.006 -0.212,0.015 -1.072,0.158 -1.703,1.763 -1.467,3.737 m -2.18,11.06 c 0.615,-0.667 0.945,-1.76 0.883,-2.926 l -0.433,-7.989 c -0.101,-1.9 -2.383,-3.399 -3.484,-3.424 h -0.028 c -1.088,0 -1.976,1.479 -2.066,3.441 l -0.365,7.991 c -0.03,0.647 0.261,1.309 0.841,1.915 0.936,0.982 2.451,1.64 3.276,1.64 0.538,-0.014 0.998,-0.237 1.376,-0.648 m -3.622,20.015 c -0.249,0 -0.469,0.026 -0.65,0.079 -0.439,0.128 -0.802,0.439 -1.053,0.898 -0.435,0.794 -0.49,1.953 -0.152,3.098 l 2.275,7.67 c 0.493,1.671 2.791,2.374 3.953,2.392 0.016,0 0.034,0.002 0.05,0.002 0.083,0 0.139,-0.018 0.214,-0.025 0.117,-0.009 0.244,-0.012 0.339,-0.039 1.124,-0.309 1.606,-2.036 1.099,-3.929 l -2.067,-7.729 c -0.444,-1.649 -2.654,-2.417 -4.008,-2.417 m 16.363,-3.569 c -0.086,0 -0.166,0.004 -0.24,0.013 -0.508,0.063 -0.96,0.339 -1.31,0.798 -0.552,0.727 -0.783,1.84 -0.617,2.979 l 1.162,7.916 c 0.282,1.909 2.755,3.068 3.77,3.068 1.163,-0.084 1.891,-1.642 1.795,-3.628 l -0.392,-7.99 c -0.09,-1.856 -2.758,-3.156 -4.168,-3.156 m 9.083,-0.205 c -1.407,0 -2.553,1.464 -2.61,3.335 l -0.24,7.996 c -0.052,1.729 0.504,3.522 1.669,3.602 h 0.003 c 1.056,0 3.157,-1.17 3.546,-3.002 l 1.666,-7.824 c 0.136,-0.641 -0.062,-1.342 -0.578,-2.026 -0.793,-1.054 -2.307,-2.003 -3.309,-2.076 -0.049,-0.003 -0.098,-0.005 -0.147,-0.005 m 25.038,16.792 c -0.388,-0.73 -1.174,-1.149 -2.156,-1.149 -0.696,0 -1.448,0.223 -2.116,0.626 l -6.851,4.134 c -1.476,0.893 -2.705,2.297 -2.193,3.256 0.337,0.629 1.841,1.58 3.339,1.58 0.373,0 0.726,-0.058 1.053,-0.173 l 7.543,-2.663 c 0.599,-0.213 1.078,-0.738 1.379,-1.519 0.543,-1.399 0.439,-3.28 0.002,-4.092 m 0.324,7.852 h -10e-4 c -0.337,0 -0.682,0.039 -1.024,0.117 l -7.803,1.769 c -1.806,0.409 -3.02,2.649 -2.939,3.614 0.099,1.162 1.963,1.648 3.62,1.58 l 7.992,-0.317 c 0.641,-0.025 1.256,-0.385 1.784,-1.041 0.926,-1.151 1.398,-2.936 1.241,-3.819 -0.203,-1.138 -1.358,-1.903 -2.87,-1.903 m 3.057,11.95 c 0.06,-0.547 -0.118,-1.082 -0.512,-1.547 -0.586,-0.699 -1.608,-1.159 -2.73,-1.232 l -7.981,-0.517 c -0.165,-0.01 -0.328,-0.016 -0.487,-0.016 -1.499,0 -3.059,0.474 -3.174,1.533 -0.105,0.998 1.063,3.316 2.875,3.74 l 7.791,1.823 c 0.142,0.033 0.289,0.049 0.438,0.049 1.809,0 3.644,-2.571 3.78,-3.833 m -2.543,7.962 c -0.387,-0.826 -1.259,-1.535 -2.327,-1.895 l -7.579,-2.56 c -0.697,-0.235 -1.398,-0.36 -2.024,-0.36 -1.007,0 -1.685,0.32 -1.908,0.901 -0.363,0.948 0.171,3.503 1.826,4.372 l 7.083,3.719 c 0.287,0.151 0.611,0.227 0.962,0.227 1.624,0 3.652,-1.715 4.064,-2.791 0.193,-0.508 0.16,-1.066 -0.097,-1.613 m -4.647,10.217 c 0.312,-0.444 0.42,-0.991 0.305,-1.586 -0.17,-0.895 -0.837,-1.798 -1.785,-2.414 l -6.705,-4.364 c -0.93,-0.606 -1.949,-0.968 -2.726,-0.968 -0.703,0 -1.051,0.285 -1.22,0.525 -0.589,0.831 -0.702,3.443 0.686,4.693 l 5.951,5.347 c 0.401,0.362 0.938,0.543 1.598,0.543 1.486,0 3.314,-0.955 3.896,-1.776 m -6.009,5.694 c 0.054,-0.911 -0.373,-1.951 -1.143,-2.782 l -5.428,-5.875 c -0.954,-1.03 -2.069,-1.672 -2.909,-1.672 -0.32,0 -0.6,0.095 -0.813,0.277 -0.776,0.664 -1.532,3.175 -0.484,4.725 l 4.473,6.631 c 0.459,0.681 1.328,1.041 2.511,1.041 1.18,0 2.518,-0.384 3.111,-0.892 0.411,-0.351 0.647,-0.854 0.682,-1.453 m -10.73,7.643 1.781,-0.811 c 0.528,-0.278 0.889,-0.738 1.072,-1.345 0.266,-0.883 0.104,-1.988 -0.432,-2.957 l -3.861,-7.006 c -0.764,-1.387 -1.882,-2.317 -2.781,-2.317 -0.206,0 -0.399,0.046 -0.57,0.136 l -1.249,0.57 c -0.972,0.408 -1.148,2.113 -0.392,3.957 l 3.03,7.404 c 0.734,1.787 2.26,2.848 3.402,2.369 m -8.403,3.008 c 0.772,-0.209 2.026,-1.25 2.662,-2.463 0.406,-0.769 0.503,-1.507 0.283,-2.134 l -2.637,-7.553 c -0.579,-1.659 -2.806,-2.346 -3.868,-2.346 -0.186,0 -0.348,0.018 -0.487,0.055 -1.055,0.289 -1.493,1.962 -1.015,3.892 l 1.92,7.768 c 0.458,1.857 1.887,3.121 3.142,2.781 m -7.058,1.52 c 0.488,-0.078 0.917,-0.36 1.239,-0.815 0.523,-0.744 0.711,-1.871 0.499,-3.017 l -1.455,-7.866 c -0.333,-1.803 -2.655,-2.951 -3.756,-2.951 l -0.153,0.006 c -1.089,0.119 -1.788,1.703 -1.622,3.684 l 0.666,7.972 c 0.168,2.02 3.337,3.187 4.582,2.987 m -12.266,-0.042 c 0.369,0.411 0.822,0.639 1.31,0.658 h 0.002 c 0.879,0 2.342,-0.606 3.293,-1.582 0.582,-0.597 0.88,-1.253 0.865,-1.901 l -0.209,-7.997 c -0.051,-1.947 -2.452,-3.468 -3.456,-3.509 l -0.051,-0.001 c -1.09,0 -2.001,1.463 -2.121,3.405 l -0.491,7.984 c -0.073,1.17 0.249,2.269 0.858,2.943 m -3.02,-3.126 0.848,-7.955 c 0.209,-1.959 -2.052,-3.761 -3.076,-3.919 -0.068,-0.009 -0.136,-0.015 -0.202,-0.015 -1.091,0 -2.104,1.324 -2.408,3.149 l -1.318,7.89 c -0.193,1.166 0.009,2.301 0.54,3.035 0.319,0.438 0.735,0.709 1.202,0.779 1.197,0.186 4.202,-0.966 4.414,-2.964 m 6.247,38.793 c -0.408,-1.096 -1.349,-2.258 -2.102,-2.589 -0.202,-0.089 -0.423,-0.134 -0.65,-0.134 -1.07,0 -2.206,0.976 -2.831,2.43 l -3.154,7.353 c -0.771,1.801 -0.535,3.582 0.54,4.057 0.339,0.148 0.781,0.18 1.091,0.18 1.042,0 2.989,-0.387 3.682,-1.836 l 3.445,-7.219 c 0.299,-0.625 0.291,-1.402 -0.021,-2.242 m 12.082,5.349 c -1.013,0 -2.148,0.754 -2.89,1.92 l -4.302,6.746 c -1.068,1.678 -1.157,3.42 -0.207,4.051 0.388,0.258 1.07,0.41 1.83,0.41 0.626,0 2.174,-0.121 3.024,-1.236 l 4.84,-6.369 c 0.413,-0.542 0.552,-1.289 0.407,-2.161 -0.203,-1.203 -0.965,-2.579 -1.7,-3.068 -0.292,-0.193 -0.628,-0.293 -1.002,-0.293 m 2.671,16.791 6.014,-5.277 c 0.5,-0.439 0.771,-1.129 0.78,-1.996 0.017,-1.266 -0.557,-2.877 -1.254,-3.52 -0.366,-0.338 -0.847,-0.516 -1.394,-0.516 -0.958,0 -1.997,0.542 -2.78,1.448 l -5.23,6.055 c -1.299,1.504 -1.683,3.185 -0.895,3.907 0.438,0.403 1.42,0.686 2.383,0.686 0.674,0 1.634,-0.137 2.376,-0.787 m 0.864,6.072 c 0.693,0 1.552,-0.178 2.421,-0.502 l 7.494,-2.799 c 0.596,-0.222 1.056,-0.759 1.331,-1.552 0.451,-1.309 0.347,-3.269 -0.219,-4.195 -0.437,-0.713 -1.229,-1.122 -2.171,-1.122 -0.742,0 -1.523,0.259 -2.202,0.731 l -6.564,4.576 c -1.582,1.101 -1.851,3.531 -1.536,4.221 0.134,0.293 0.494,0.642 1.446,0.642 m 31.756,-4.669 c 3.836,-0.173 7.181,-0.387 9.936,-0.551 2.756,-0.153 4.921,-0.328 6.397,-0.424 1.474,-0.112 2.261,-0.172 2.261,-0.172 0,0 -0.787,-0.061 -2.261,-0.172 -1.476,-0.097 -3.641,-0.272 -6.397,-0.425 -2.755,-0.163 -6.1,-0.378 -9.936,-0.551 -3.837,-0.195 -8.166,-0.411 -12.889,-0.575 -1.529,-0.062 -3.113,-0.123 -4.723,-0.183 0.01,0.859 -0.043,1.752 -0.177,2.689 0.309,0.286 0.683,0.651 1.081,1.09 1.297,-0.05 2.574,-0.101 3.819,-0.151 4.723,-0.164 9.052,-0.38 12.889,-0.575 m -17.291,8.874 0.003,-2.495 c -0.174,-1.432 -1.498,-2.428 -3.145,-2.428 -0.228,0 -0.458,0.018 -0.693,0.058 l -7.889,1.325 c -0.573,0.097 -3.426,0.64 -3.269,1.882 l -0.004,0.784 c -0.171,1.267 2.901,1.844 3.251,1.907 l 7.878,1.382 c 1.943,0.34 3.654,-0.785 3.868,-2.415 m -8.083,17.125 c 0.333,-0.375 0.485,-0.87 0.441,-1.431 -0.07,-0.904 -0.648,-1.885 -1.544,-2.625 l -6.165,-5.098 c -0.954,-0.789 -2.048,-1.279 -2.854,-1.279 -0.549,0 -0.862,0.221 -1.026,0.406 -0.642,0.723 -1.19,3.446 0.122,4.846 l 5.474,5.836 c 0.428,0.457 1.091,0.701 1.911,0.701 1.437,0 3.073,-0.715 3.641,-1.356 m -6.133,5.018 c 0.089,-0.897 -0.316,-1.98 -1.08,-2.896 l -5.131,-6.139 c -0.793,-0.948 -2.095,-1.09 -2.8,-1.09 -0.857,0 -1.687,0.203 -2.108,0.518 -0.925,0.689 -0.748,2.426 0.411,4.043 l 4.66,6.504 c 0.483,0.677 1.408,1.05 2.6,1.05 1.091,0 2.277,-0.314 2.818,-0.749 0.359,-0.288 0.576,-0.717 0.63,-1.241 m -16.797,10.934 c 0.712,0 1.338,-0.119 1.717,-0.328 0.38,-0.209 0.655,-0.575 0.793,-1.057 0.246,-0.863 0.038,-2.01 -0.558,-3.071 l -3.919,-6.974 c -0.655,-1.17 -2.212,-1.588 -3.448,-1.588 -0.348,0 -0.995,0.036 -1.444,0.271 -0.07,0.037 -0.126,0.094 -0.187,0.143 -0.167,0.131 -0.314,0.285 -0.418,0.485 -0.429,0.82 -0.321,2.154 0.353,3.459 l 3.675,7.107 c 0.746,1.441 2.819,1.553 3.436,1.553 m -5.904,3.583 c 0.455,-0.222 0.791,-0.625 0.973,-1.166 0.296,-0.868 0.167,-2.004 -0.346,-3.041 l -3.542,-7.171 c -0.678,-1.374 -1.836,-2.297 -2.879,-2.297 -0.256,0 -0.497,0.054 -0.717,0.162 l -1.527,0.725 c -0.341,0.169 -0.593,0.476 -0.734,0.888 -0.273,0.815 -0.096,2.02 0.468,3.148 l 3.567,7.159 c 0.834,1.673 2.168,2.66 3.095,2.348 0.043,-0.014 0.091,-0.016 0.133,-0.038 l 1.455,-0.691 z m -16.127,70.329 c 0.95,-1.747 0.938,-3.483 -0.027,-4.036 -0.328,-0.187 -0.872,-0.295 -1.493,-0.295 -0.547,0 -2.399,0.102 -3.286,1.428 l -4.449,6.649 c -0.372,0.558 -0.464,1.303 -0.266,2.156 0.28,1.193 1.166,2.573 1.936,3.014 1.135,0.652 2.846,-0.211 3.759,-1.889 z m 21.345,6.609 c 0.274,-1.972 -0.375,-3.591 -1.506,-3.766 -0.073,-0.011 -0.155,-0.017 -0.245,-0.017 -1.117,0 -3.5,0.994 -3.877,2.815 l -1.621,7.835 c -0.136,0.663 0.056,1.397 0.559,2.121 0.691,1 1.953,1.922 2.809,2.057 1.305,0.197 2.527,-1.209 2.79,-3.119 z m -12.477,9.174 c 1.233,0.338 2.66,-0.929 3.127,-2.789 l 1.947,-7.758 c 0.482,-1.931 0.022,-3.609 -1.07,-3.906 -0.143,-0.037 -0.311,-0.058 -0.5,-0.058 -1.082,10e-4 -3.333,0.698 -3.891,2.38 l -2.514,7.594 c -0.213,0.641 -0.103,1.39 0.314,2.166 0.581,1.08 1.74,2.143 2.587,2.371 m -10.702,-5.578 c 0.445,1.151 1.474,2.361 2.296,2.695 1.191,0.482 2.778,-0.607 3.458,-2.384 l 2.862,-7.471 c 0.713,-1.858 0.463,-3.579 -0.581,-4.002 -0.23,-0.094 -0.531,-0.139 -0.898,-0.139 -1.346,0 -3.086,0.597 -3.716,1.908 l -3.46,7.213 c -0.291,0.607 -0.279,1.361 0.039,2.18 m -13.246,-6.452 c 1.026,0.815 2.881,0.212 4.016,-1.292 l 4.823,-6.383 c 0.833,-1.102 0.876,-2.642 0.586,-3.588 -0.101,-0.332 -0.243,-0.596 -0.408,-0.736 -0.508,-0.436 -1.347,-0.764 -1.948,-0.764 -0.678,0 -1.843,0.947 -2.682,1.75 -0.227,0.22 -0.437,0.43 -0.6,0.605 l -4.663,5.012 c -0.457,0.488 -0.663,1.206 -0.596,2.075 0.1,1.365 0.844,2.82 1.472,3.321 m -7.994,-10.261 c -0.126,1.228 0.704,3.152 1.326,3.85 0.886,0.995 2.819,0.726 4.194,-0.571 l 2.767,-2.609 c 0.602,-0.567 0.809,-1.051 0.852,-1.422 0.027,-0.246 -0.015,-0.444 -0.068,-0.58 -0.137,-0.344 -0.571,-0.92 -1.943,-0.92 h -1.782 c -1.774,0 -3.899,0.545 -4.838,1.242 -0.09,0.067 -0.145,0.168 -0.214,0.258 -0.147,0.201 -0.26,0.439 -0.294,0.752 m -17.062,-34.799 c -0.035,1.363 0.205,2.91 0.412,4.463 0.174,0.758 0.351,1.528 0.531,2.311 0.197,0.779 0.504,1.539 0.758,2.328 1.15,3.103 2.901,6.211 5.316,8.939 2.401,2.726 5.395,5.135 8.846,6.823 3.441,1.704 7.285,2.732 11.182,2.965 l 1.463,0.067 0.181,0.008 0.164,-0.002 0.087,-0.005 0.347,-0.018 0.694,-0.039 1.388,-0.076 c 0.451,-0.012 0.976,-0.131 1.459,-0.194 0.985,-0.15 1.978,-0.286 2.896,-0.566 0.938,-0.244 1.876,-0.465 2.766,-0.834 3.627,-1.275 6.877,-3.334 9.574,-5.767 2.711,-2.432 4.812,-5.315 6.319,-8.266 1.523,-2.952 2.329,-6.02 2.727,-8.851 0.077,-0.713 0.19,-1.405 0.231,-2.089 0.009,-0.683 0.02,-1.351 0.032,-2.003 -0.01,-0.342 0.031,-0.608 -0.02,-0.999 -0.032,-0.306 -0.062,-0.609 -0.094,-0.908 -0.064,-0.598 -0.123,-1.178 -0.184,-1.74 -0.03,-0.56 -0.167,-1.112 -0.294,-1.644 -0.125,-0.528 -0.246,-1.037 -0.36,-1.526 -0.191,-0.988 -0.571,-1.822 -0.852,-2.593 -0.513,-1.563 -1.191,-2.667 -1.601,-3.436 -0.415,-0.764 -0.636,-1.172 -0.636,-1.172 0,0 0.17,0.432 0.487,1.244 0.158,0.402 0.355,0.899 0.583,1.483 0.128,0.286 0.222,0.611 0.305,0.961 0.093,0.347 0.19,0.714 0.295,1.103 0.197,0.778 0.484,1.623 0.565,2.582 0.069,0.471 0.139,0.961 0.21,1.47 0.08,0.506 0.168,1.024 0.153,1.6 0.011,0.566 0.025,1.149 0.038,1.749 0.005,0.302 0.011,0.605 0.017,0.914 0.021,0.226 -0.044,0.584 -0.061,0.875 -0.055,0.615 -0.11,1.245 -0.164,1.892 -0.081,0.64 -0.234,1.287 -0.348,1.951 -0.56,2.631 -1.488,5.418 -3.006,8.082 -1.519,2.656 -3.578,5.18 -6.089,7.34 -2.511,2.164 -5.527,3.871 -8.789,5.015 -0.803,0.33 -1.652,0.515 -2.497,0.729 -0.846,0.252 -1.684,0.346 -2.524,0.473 -0.434,0.05 -0.816,0.158 -1.288,0.166 l -1.387,0.063 -0.694,0.032 -0.347,0.016 -0.069,0.002 h -0.029 l -0.164,-0.01 -1.313,-0.072 c -3.505,-0.176 -6.968,-1.067 -10.082,-2.572 -3.112,-1.508 -5.912,-3.553 -8.161,-5.989 -2.246,-2.433 -4,-5.175 -5.196,-7.991 -0.265,-0.716 -0.587,-1.405 -0.803,-2.116 -0.206,-0.718 -0.408,-1.424 -0.607,-2.117 -0.27,-1.403 -0.596,-2.711 -0.656,-4.137 -0.25,-2.688 -0.111,-5.197 0.297,-7.373 0.421,-2.171 0.939,-4.059 1.568,-5.537 0.274,-0.759 0.592,-1.4 0.856,-1.967 0.252,-0.572 0.504,-1.049 0.728,-1.423 0.429,-0.758 0.655,-1.163 0.655,-1.163 0,0 -0.274,0.374 -0.791,1.076 -0.266,0.344 -0.573,0.783 -0.899,1.331 -0.342,0.536 -0.737,1.16 -1.09,1.9 -0.789,1.441 -1.533,3.311 -2.144,5.537 -0.612,2.223 -0.989,4.846 -0.891,7.705 m -25.698,-77.935 c -5.412,0.129 -10.529,0.33 -15.25,0.517 -4.724,0.163 -9.052,0.381 -12.89,0.572 -3.838,0.173 -7.183,0.389 -9.938,0.549 -2.753,0.152 -4.919,0.327 -6.394,0.422 -1.477,0.112 -2.264,0.172 -2.264,0.172 0,0 0.787,0.059 2.264,0.172 1.475,0.094 3.641,0.269 6.394,0.422 2.755,0.16 6.1,0.376 9.938,0.548 3.838,0.192 8.166,0.409 12.89,0.573 4.721,0.186 9.838,0.388 15.25,0.516 5.411,0.146 11.118,0.332 17.02,0.404 5.903,0.078 12.004,0.246 18.201,0.259 5.858,0.032 11.803,0.065 17.75,0.098 0.094,2.353 0.186,4.629 0.276,6.803 0.246,6.645 0.547,12.439 0.771,17.211 0.215,4.77 0.457,8.518 0.59,11.074 0.154,2.557 0.237,3.92 0.237,3.92 0,0 0.076,-1.363 0.22,-3.92 0.121,-2.558 0.346,-6.307 0.536,-11.078 0.203,-4.773 0.477,-10.567 0.692,-17.213 0.078,-2.176 0.16,-4.451 0.242,-6.803 5.454,-0.025 10.9,-0.051 16.27,-0.076 6.2,-0.029 12.299,-0.186 18.202,-0.269 1.627,-0.02 3.236,-0.049 4.83,-0.082 -0.326,-0.223 -0.639,-0.458 -0.94,-0.711 -1.414,-1.191 -2.486,-2.665 -3.269,-4.479 -0.208,-0.004 -0.413,-0.009 -0.621,-0.011 -5.903,-0.083 -12.002,-0.239 -18.202,-0.268 -5.303,-0.026 -10.684,-0.051 -16.073,-0.076 0.099,-3.067 0.189,-6.251 0.271,-9.551 0.228,-8.181 0.476,-17.043 0.625,-26.416 0.109,-5.936 0.236,-12.096 0.334,-18.4 -0.497,-0.022 -0.994,-0.069 -1.493,-0.164 -1.43,-0.272 -2.75,-0.815 -3.925,-1.617 -0.434,0.123 -0.875,0.206 -1.319,0.272 0.133,6.839 0.305,13.509 0.452,19.924 0.195,9.372 0.485,18.233 0.752,26.411 0.097,3.295 0.202,6.473 0.316,9.535 -5.873,0.033 -11.742,0.066 -17.524,0.097 -6.197,0.014 -12.298,0.182 -18.201,0.26 -5.902,0.071 -11.609,0.258 -17.02,0.403 m 27.526,-24.27 c 0.707,0.967 1.974,1.847 2.821,1.957 1.296,0.172 2.511,-1.254 2.733,-3.18 l 0.916,-7.947 c 0.011,-0.107 0.01,-0.207 0.017,-0.311 0.021,-0.294 0.021,-0.577 0,-0.847 -0.104,-1.412 -0.722,-2.455 -1.637,-2.574 -0.063,-0.01 -0.131,-0.014 -0.205,-0.014 -1.168,0 -3.512,1.107 -3.839,2.916 l -1.421,7.873 c -0.121,0.672 0.091,1.408 0.615,2.127 m -8.559,-2.11 c 0.594,1.084 1.787,2.147 2.661,2.37 1.291,0.326 2.72,-0.954 3.15,-2.824 l 1.789,-7.797 c 0.445,-1.939 -0.039,-3.609 -1.127,-3.883 -0.127,-0.033 -0.276,-0.049 -0.441,-0.049 -1.229,0 -3.296,0.865 -3.819,2.432 l -2.529,7.588 c -0.215,0.644 -0.105,1.39 0.316,2.163 m -8.499,-3.849 c 0.371,1.24 1.437,2.635 2.325,3.045 1.278,0.59 2.987,-0.404 3.718,-2.155 l 3.08,-7.384 c 0.652,-1.558 0.763,-3.481 -0.311,-3.974 -0.285,-0.132 -0.656,-0.159 -0.918,-0.159 -1.221,0 -2.782,0.529 -3.52,1.715 l -4.219,6.795 c -0.349,0.56 -0.402,1.293 -0.155,2.117 m -1.885,-3.566 5.058,-6.197 c 1.057,-1.294 1.85,-3.007 1.09,-3.71 -0.33,-0.305 -1.074,-0.504 -1.895,-0.504 -0.924,0 -1.8,0.25 -2.468,0.703 l -6.614,4.5 c -0.521,0.354 -0.83,0.979 -0.894,1.804 -0.108,1.404 0.537,3.38 1.354,4.146 1.131,1.059 3.185,0.707 4.369,-0.742 m -11.029,-14.485 c 0,0.116 0.304,3.782 0.709,5.172 0.33,1.133 1.399,1.862 2.72,1.862 0.477,0 0.955,-0.093 1.424,-0.28 l 7.433,-2.953 c 1.624,-0.647 2.841,-2.259 2.776,-2.97 -0.032,-0.345 -0.06,-0.655 -0.063,-0.715 0.01,-0.536 0.01,-0.536 -3.488,-0.598 l -8,-0.144 c -0.291,-0.005 -0.572,-0.007 -0.84,-0.007 -2.314,0 -2.664,0.082 -2.671,0.633 m 1.564,-5.143 c 0.445,0.804 1.293,1.411 2.326,1.666 l 7.769,1.907 c 1.585,0.392 3.731,-0.478 4.134,-1.252 0.527,-1.009 -1.19,-2.416 -2.288,-3.09 l -6.82,-4.182 c -0.278,-0.171 -0.602,-0.256 -0.959,-0.256 -1.686,0 -3.95,2.047 -4.361,3.282 -0.209,0.629 -0.139,1.311 0.199,1.925 m 8.863,-13.313 c -0.541,0 -1.033,0.175 -1.426,0.503 -0.807,0.68 -1.521,2.475 -1.523,3.842 -0.002,0.838 0.254,1.498 0.738,1.912 l 6.1,5.176 c 0.646,0.549 1.568,0.851 2.595,0.851 0.822,0 1.582,-0.193 1.942,-0.495 0.824,-0.692 0.205,-2.45 -0.832,-3.829 l -4.809,-6.395 c -0.736,-0.98 -1.777,-1.565 -2.785,-1.565 m 8.985,-5.569 h -0.002 l -0.201,0.037 c -0.218,0.084 -2.784,1.158 -3.677,1.627 -0.398,0.209 -0.683,0.58 -0.827,1.069 -0.247,0.858 -0.034,1.993 0.572,3.039 l 4.003,6.927 c 0.795,1.377 2.473,1.996 3.412,1.996 0.204,0 0.381,-0.031 0.522,-0.092 0.506,-0.216 1.076,-0.452 1.27,-0.523 0.328,-0.123 0.822,-0.31 -0.393,-3.588 l -2.777,-7.504 c -1.102,-2.978 -1.682,-2.988 -1.902,-2.988 m 5.847,-1.83 c -0.281,0 -0.524,0.031 -0.724,0.09 -0.457,0.138 -0.832,0.466 -1.084,0.949 -0.42,0.802 -0.457,1.953 -0.094,3.074 l 2.453,7.613 c 0.548,1.698 2.816,2.404 3.91,2.404 0.181,0 0.34,-0.019 0.476,-0.054 1.086,-0.285 1.552,-1.959 1.085,-3.894 l -1.885,-7.774 c -0.398,-1.643 -2.703,-2.408 -4.137,-2.408 m 10.321,-40.575 0.314,-0.128 -0.17,-15.381 c -0.004,-3.824 -0.024,-7.646 -0.041,-11.461 -0.022,-4.293 -0.039,-8.676 -0.039,-13.045 -0.838,-0.075 -1.664,-0.245 -2.471,-0.519 -1.488,-0.504 -2.814,-1.299 -3.951,-2.366 -1.469,0.313 -2.957,0.32 -4.44,0.017 -1.347,-0.278 -2.607,-0.796 -3.749,-1.542 -1.207,0.478 -2.473,0.733 -3.766,0.758 l -0.315,0.004 c -1.049,0 -2.109,-0.167 -3.154,-0.499 -0.916,0.688 -1.93,1.222 -3.016,1.591 -0.829,0.282 -1.679,0.462 -2.54,0.536 -0.553,0.606 -1.194,1.15 -1.913,1.62 -0.495,0.326 -1.005,0.604 -1.525,0.831 -0.338,0.461 -0.724,0.904 -1.151,1.32 -0.439,0.425 -0.908,0.805 -1.394,1.135 -0.259,0.537 -0.57,1.061 -0.933,1.563 -0.373,0.518 -0.784,0.992 -1.225,1.416 -0.17,0.598 -0.4,1.19 -0.687,1.769 -0.293,0.588 -0.633,1.141 -1.015,1.645 -0.075,0.633 -0.214,1.273 -0.415,1.905 -0.203,0.642 -0.463,1.252 -0.772,1.819 0.022,0.645 -0.021,1.307 -0.129,1.97 -0.105,0.661 -0.271,1.299 -0.492,1.904 0.116,0.628 0.172,1.281 0.166,1.945 -0.006,0.649 -0.068,1.286 -0.187,1.898 0.201,0.579 0.353,1.19 0.451,1.819 0.094,0.598 0.136,1.196 0.125,1.78 0.273,0.495 0.512,1.025 0.707,1.578 0.181,0.512 0.322,1.03 0.418,1.544 0.324,0.38 0.627,0.793 0.9,1.231 0.244,0.389 0.461,0.792 0.647,1.198 0.342,0.249 0.677,0.525 0.998,0.824 1.236,1.156 2.199,2.567 2.871,4.2 1.726,0.097 3.341,0.534 4.806,1.303 1.465,0.769 2.746,1.846 3.813,3.205 1.713,-0.383 3.394,-0.397 5.027,-0.05 1.709,0.364 3.307,1.113 4.758,2.23 1.678,-0.848 3.436,-1.284 5.242,-1.301 1.908,0.003 3.748,0.451 5.481,1.331 0.878,-0.667 1.805,-1.203 2.766,-1.597 m -29.436,15.192 c 0.238,0.51 0.613,0.866 1.084,1.029 1.216,0.424 4.555,-0.187 5.062,-2.141 l 2.014,-7.743 c 0.485,-1.87 -1.34,-3.996 -2.267,-4.319 -0.125,-0.043 -0.255,-0.065 -0.391,-0.065 -0.945,0 -2.027,1.114 -2.629,2.706 l -2.832,7.482 c -0.41,1.086 -0.426,2.227 -0.041,3.051 m -13.568,-6.684 c 0.304,0.223 0.677,0.341 1.082,0.341 0.999,0 2.097,-0.688 2.868,-1.797 l 4.563,-6.57 c 1.135,-1.633 1.332,-3.347 0.461,-3.987 -0.404,-0.298 -1.211,-0.49 -2.055,-0.49 h -0.001 c -0.7,0 -1.996,0.139 -2.796,1.069 l -5.226,6.058 c -0.432,0.5 -0.607,1.22 -0.51,2.08 0.155,1.376 0.961,2.816 1.614,3.296 m -2.826,-6.961 5.737,-5.576 c 1.198,-1.165 2.164,-2.795 1.452,-3.621 -0.413,-0.479 -1.607,-0.87 -2.658,-0.87 -0.719,0 -1.35,0.162 -1.877,0.481 l -6.844,4.143 c -0.537,0.325 -0.891,0.931 -1.021,1.751 -0.233,1.479 0.288,3.389 0.911,4.107 0.938,1.089 2.957,0.892 4.3,-0.415 m -9.503,-8.583 c 0.337,0.85 1.221,1.357 2.364,1.357 0.589,0 1.213,-0.141 1.8,-0.406 l 7.293,-3.287 c 1.576,-0.711 2.955,-1.974 2.543,-3.014 -0.318,-0.804 -1.988,-2.044 -3.556,-2.044 -0.242,0 -0.479,0.029 -0.703,0.085 l -7.76,1.947 c -0.619,0.155 -1.151,0.634 -1.533,1.384 -0.674,1.311 -0.776,3.149 -0.448,3.978 m -2.249,-9.647 c 0.157,1.362 1.784,2.265 3.765,1.964 l 7.908,-1.205 c 1.711,-0.26 3.372,-1.135 3.238,-2.305 -0.099,-0.887 -1.661,-3.073 -3.638,-3.073 l -8.016,0.047 c -0.65,0.003 -1.291,0.342 -1.856,0.98 -0.947,1.066 -1.496,2.748 -1.401,3.592 m 10.331,-29.676 c -1.511,0 -3.406,1.118 -3.964,2.044 -0.281,0.461 -0.346,1.013 -0.192,1.593 0.235,0.883 0.965,1.736 1.954,2.286 l 6.995,3.885 c 0.885,0.49 1.825,0.771 2.578,0.771 0.844,0 1.229,-0.343 1.403,-0.631 0.529,-0.878 0.457,-3.503 -1.029,-4.644 l -6.346,-4.871 c -0.373,-0.287 -0.844,-0.433 -1.399,-0.433 m 12.659,-12.499 v 0 c -0.342,0 -0.669,0.069 -0.977,0.205 l -1.824,0.96 c -0.391,0.232 -0.647,0.601 -0.762,1.079 -0.211,0.866 0.047,2.005 0.693,3.046 l 4.221,6.797 c 0.66,1.065 1.76,2.309 2.682,2.309 0.174,0 0.332,-0.042 0.47,-0.125 l 1.117,-0.587 c 1.026,-0.456 1.245,-2.195 0.477,-4.03 l -3.084,-7.381 c -0.568,-1.36 -1.779,-2.273 -3.013,-2.273 m 6.654,-2.556 c -0.525,0.14 -0.955,0.494 -1.246,1.021 -0.441,0.798 -0.504,1.919 -0.168,2.999 l 2.371,7.64 c 0.584,1.883 3.092,2.76 3.961,2.592 1.154,-0.214 1.506,-2.057 1.257,-3.769 l -1.152,-7.918 c -0.266,-1.842 -3.023,-2.638 -4.369,-2.638 -0.25,0 -0.471,0.025 -0.654,0.073 m 21.797,1.72 c -0.768,-1.143 -2.127,-2.05 -2.915,-2.178 -0.087,-0.014 -0.175,-0.021 -0.263,-0.021 -1.199,0 -2.289,1.342 -2.537,3.12 l -1.107,7.922 c -0.264,1.898 1.713,3.799 2.804,4.026 1.075,0.228 2.287,-1.095 2.728,-2.993 l 1.8,-7.795 c 0.148,-0.642 -0.028,-1.362 -0.51,-2.081 m 2.597,2.609 -2.12,7.715 c -0.524,1.907 1.443,4.048 2.441,4.366 1.095,0.345 2.468,-0.841 3.08,-2.683 l 2.522,-7.592 c 0.373,-1.123 0.351,-2.275 -0.059,-3.084 -0.243,-0.48 -0.611,-0.809 -1.059,-0.953 -0.209,-0.066 -0.467,-0.101 -0.765,-0.101 -1.412,0 -3.596,0.724 -4.04,2.332 m -4.085,-32.111 c 0.935,0 2.38,-1.806 2.662,-2.168 l 4.892,-6.328 c 0.17,-0.22 0.318,-0.419 0.454,-0.609 1.597,-2.216 1.13,-2.594 0.917,-2.76 l -0.551,-0.449 c -0.099,-0.115 -0.224,-0.212 -0.366,-0.299 -0.348,-0.219 -0.811,-0.351 -1.333,-0.351 h -10e-4 c -0.875,0 -1.833,0.355 -2.63,0.973 l -6.318,4.904 c -0.74,0.573 -1.197,1.395 -1.289,2.312 -0.092,0.916 0.192,1.812 0.805,2.521 0.025,0.03 0.639,0.738 2.023,1.868 l 0.287,0.233 c 0.131,0.102 0.282,0.153 0.448,0.153 m -5.807,-8.487 c 0.703,0 1.466,-0.225 2.143,-0.633 l 6.855,-4.127 c 1.588,-0.956 2.029,-3.476 1.643,-4.371 -0.221,-0.515 -0.832,-0.799 -1.717,-0.799 -0.665,0 -1.452,0.158 -2.215,0.446 l -7.486,2.823 c -0.6,0.226 -1.075,0.764 -1.37,1.556 -0.512,1.375 -0.396,3.207 0.029,3.992 0.383,0.708 1.155,1.113 2.118,1.113 m -2.575,-8.862 c 0.352,0 0.711,-0.045 1.063,-0.134 l 7.76,-1.948 c 1.676,-0.42 3.262,-1.401 3.054,-2.463 -0.175,-0.88 -1.849,-2.571 -3.683,-2.571 l -0.074,0.001 -7.997,0.194 c -0.64,0.015 -1.255,0.37 -1.782,1.025 -0.852,1.061 -1.423,2.897 -1.221,3.932 0.227,1.174 1.385,1.964 2.88,1.964 m 36.131,-68.515 c -0.165,3.801 -0.37,8.262 -0.556,13.274 0.642,-0.787 1.418,-1.55 2.375,-2.227 0.095,-0.067 0.193,-0.123 0.287,-0.187 -0.179,-4.039 -0.361,-7.683 -0.516,-10.864 -0.215,-4.771 -0.458,-8.52 -0.591,-11.075 -0.157,-2.556 -0.24,-3.919 -0.24,-3.919 0,0 -0.075,1.363 -0.219,3.92 -0.123,2.556 -0.346,6.305 -0.54,11.078 m 24.066,4.214 4.933,6.297 c 1.168,1.493 2.971,2.112 3.942,1.341 0.641,-0.51 1.237,-1.827 1.355,-2.996 0.091,-0.897 -0.096,-1.655 -0.546,-2.19 l -5.135,-6.133 c -0.552,-0.658 -1.491,-1.02 -2.647,-1.02 -0.964,0 -1.929,0.253 -2.405,0.632 -0.928,0.739 -0.706,2.526 0.503,4.069 m 11.575,-10.138 5.709,5.604 c 1.345,1.321 3.232,1.695 4.096,0.793 0.581,-0.608 1.012,-2.07 0.962,-3.259 -0.037,-0.89 -0.328,-1.601 -0.843,-2.056 l -5.996,-5.295 c -0.509,-0.448 -1.226,-0.685 -2.073,-0.685 -1.123,0 -2.412,0.428 -2.933,0.975 -0.807,0.84 -0.342,2.528 1.078,3.923 m 15.437,-0.071 c 0.531,-0.658 0.838,-2.164 0.684,-3.356 -0.111,-0.88 -0.462,-1.559 -1.01,-1.966 l -6.428,-4.759 c -0.465,-0.344 -1.054,-0.518 -1.747,-0.518 -1.311,0 -2.748,0.653 -3.22,1.239 -0.726,0.901 -0.114,2.536 1.42,3.806 l 6.161,5.104 c 1.451,1.2 3.361,1.416 4.14,0.45 m 5.059,-6.931 c 0.473,-0.701 0.651,-2.227 0.398,-3.402 -0.188,-0.866 -0.591,-1.512 -1.17,-1.869 l -6.804,-4.211 c -0.408,-0.254 -0.897,-0.383 -1.453,-0.383 -1.357,10e-4 -2.966,0.825 -3.443,1.534 -0.647,0.96 0.101,2.537 1.741,3.671 l 6.575,4.555 c 1.544,1.067 3.47,1.125 4.156,0.105 m 16.583,-41.403 c -0.425,-0.786 -0.998,-1.302 -1.657,-1.492 l -7.687,-2.219 c -0.207,-0.06 -0.425,-0.09 -0.651,-0.09 -1.699,0 -3.485,1.769 -3.768,2.688 -0.343,1.119 0.853,2.454 2.725,3.04 l 7.635,2.39 c 0.528,0.165 1.08,0.253 1.592,0.253 1.229,0 2.147,-0.5 2.394,-1.305 0.237,-0.771 -0.024,-2.237 -0.583,-3.265 m 3.28,-6.291 c 0.087,-0.343 0.046,-0.704 -0.106,-1.06 -0.034,-0.081 -0.069,-0.163 -0.117,-0.243 -0.457,-0.773 -1.435,-1.415 -2.611,-1.716 l -7.753,-1.975 c -0.185,-0.047 -0.376,-0.072 -0.574,-0.072 -1.733,0.001 -3.505,1.861 -3.764,2.828 -0.307,1.136 0.935,2.432 2.826,2.953 l 7.715,2.121 c 0.191,0.052 0.393,0.08 0.599,0.08 1.295,0 2.603,-1.053 3.3,-2.004 0.244,-0.333 0.417,-0.653 0.485,-0.912 m -5.252,17.401 c 0.267,-0.765 0.065,-2.242 -0.454,-3.293 -0.393,-0.802 -0.948,-1.338 -1.6,-1.553 l -7.601,-2.502 c -0.233,-0.077 -0.484,-0.116 -0.746,-0.116 -1.689,0 -3.453,1.641 -3.764,2.529 -0.384,1.096 0.758,2.474 2.603,3.137 l 7.529,2.703 c 0.582,0.209 1.188,0.32 1.749,0.32 1.16,0 2.012,-0.458 2.284,-1.225 m -2.929,7.8 c 0.307,-0.762 0.175,-2.263 -0.299,-3.348 -0.354,-0.812 -0.88,-1.372 -1.519,-1.615 l -7.477,-2.84 c -0.27,-0.101 -0.562,-0.153 -0.868,-0.153 -1.595,0 -3.369,1.414 -3.743,2.331 -0.444,1.09 0.611,2.489 2.45,3.255 l 7.385,3.077 c 0.645,0.268 1.315,0.411 1.936,0.411 1.052,0 1.85,-0.418 2.135,-1.118 m -3.359,7.678 c 0.357,-0.745 0.312,-2.255 -0.1,-3.369 -0.311,-0.834 -0.805,-1.421 -1.431,-1.698 l -7.315,-3.236 c -0.311,-0.137 -0.655,-0.207 -1.024,-0.207 -1.559,0.001 -3.285,1.251 -3.685,2.094 -0.505,1.056 0.464,2.514 2.255,3.389 l 7.186,3.514 c 0.696,0.34 1.45,0.527 2.122,0.527 0.959,0 1.687,-0.369 1.992,-1.014 m -3.874,7.534 c 0.413,-0.729 0.469,-2.254 0.129,-3.402 -0.253,-0.85 -0.705,-1.465 -1.308,-1.78 l -7.096,-3.697 c -0.355,-0.186 -0.765,-0.279 -1.213,-0.279 -1.543,0 -3.187,1.101 -3.598,1.83 -0.571,1.009 0.298,2.525 2.023,3.524 l 6.922,4.012 c 1.622,0.939 3.543,0.854 4.141,-0.208 m 102.734,144.666 c -0.536,27.79 -10.023,52.731 -18.609,64.144 l -1.49,1.983 -0.301,-2.463 c -5.394,-44.144 -56.033,-96.4 -56.544,-96.922 l -1.954,-2 2.78,0.307 c 0.026,0.003 2.739,0.297 6.73,0.297 6.601,0 15.864,-0.77 23.383,-4.332 -1.681,-1.809 -3.476,-3.617 -5.357,-5.392 -1.916,-1.873 -4.06,-3.644 -6.135,-5.355 l -1.161,-0.961 -3.954,-2.977 c -0.796,-0.621 -1.678,-1.208 -2.532,-1.775 -0.502,-0.334 -1.003,-0.668 -1.479,-1.003 l -2.025,-1.373 c -0.433,-0.283 -0.88,-0.552 -1.327,-0.822 l -0.756,-0.46 c -0.537,-0.324 -1.069,-0.65 -1.6,-0.976 -0.867,-0.531 -1.734,-1.061 -2.573,-1.555 -0.897,-0.48 -1.78,-0.969 -2.661,-1.456 -2.028,-1.122 -3.944,-2.182 -5.994,-3.137 -0.541,-0.262 -1.078,-0.528 -1.612,-0.794 -0.912,-0.452 -1.82,-0.903 -2.726,-1.322 l -6.571,-2.9 -6.592,-2.601 c -1.831,-0.693 -3.692,-1.342 -5.494,-1.968 -1.062,-0.37 -2.117,-0.737 -3.115,-1.095 l -8.401,-2.62 -8.077,-2.215 c -1.664,-0.436 -3.308,-0.824 -4.913,-1.202 -0.917,-0.216 -1.818,-0.43 -2.712,-0.648 -1.849,-0.47 -3.685,-0.845 -5.462,-1.207 l -1.554,-0.32 c -0.799,-0.158 -1.578,-0.322 -2.342,-0.482 -0.57,-0.119 -1.132,-0.237 -1.687,-0.349 l 0.081,0.891 c 0.689,7.304 1.316,15.706 1.971,26.444 0.387,6.469 0.704,13.286 0.954,20.339 v -12.081 l 1.032,-0.096 c 0.203,-0.02 0.404,-0.038 0.609,-0.042 l 0.294,-0.005 c 1.282,0 2.523,0.242 3.694,0.722 1.278,-0.454 2.611,-0.64 4.071,-0.531 1.463,0.107 2.828,0.5 4.057,1.171 1.376,-0.327 2.818,-0.347 4.27,-0.055 1.483,0.295 2.822,0.878 3.98,1.735 0.321,-0.032 0.646,-0.049 0.965,-0.049 1.121,0 2.254,0.199 3.361,0.591 1.323,0.467 2.487,1.161 3.466,2.066 1.38,0.105 2.733,0.523 4.03,1.244 1.194,0.664 2.195,1.506 2.983,2.507 1.214,0.382 2.353,1.022 3.393,1.902 1.052,0.886 1.877,1.913 2.457,3.052 1.122,0.612 2.123,1.463 2.982,2.536 0.856,1.076 1.466,2.244 1.81,3.476 0.99,0.825 1.81,1.864 2.441,3.095 0.637,1.239 1.004,2.523 1.093,3.819 0.813,1.025 1.413,2.23 1.781,3.588 0.373,1.384 0.46,2.75 0.258,4.068 0.59,1.209 0.916,2.553 0.965,4 0.052,1.486 -0.191,2.881 -0.722,4.154 0.298,1.355 0.284,2.781 -0.039,4.246 -0.331,1.489 -0.939,2.807 -1.805,3.923 -0.063,1.415 -0.458,2.815 -1.176,4.169 -0.713,1.342 -1.642,2.448 -2.767,3.29 -0.434,1.327 -1.17,2.555 -2.199,3.656 -0.997,1.069 -2.132,1.875 -3.38,2.398 -0.717,1.124 -1.682,2.096 -2.872,2.889 -1.143,0.765 -2.359,1.273 -3.615,1.515 -0.884,0.891 -1.958,1.607 -3.198,2.13 -2.045,0.861 -4.208,1.07 -6.432,0.616 -1.602,1.596 -3.521,2.603 -5.712,2.996 -2.184,0.391 -4.336,0.116 -6.386,-0.811 -1.894,1.191 -3.975,1.761 -6.15,1.671 -2.133,-0.076 -4.107,-0.749 -5.876,-2.003 -0.284,0.11 -0.572,0.179 -0.857,0.265 -0.002,3.811 -0.002,7.632 0.014,11.461 l -0.033,4.979 0.119,0.019 c 0.452,0.071 0.901,0.163 1.337,0.275 1.608,-1.842 3.518,-3.083 5.69,-3.696 2.309,-0.65 4.684,-0.564 7.14,0.263 1.886,-1.854 4.054,-2.981 6.453,-3.354 2.7,-0.421 5.317,0.099 7.924,1.58 2.098,-1.312 4.193,-1.951 6.383,-1.951 0.627,0 1.267,0.055 1.901,0.163 2.531,0.433 4.736,1.651 6.566,3.625 0.362,-0.039 0.724,-0.058 1.077,-0.058 1.913,0 3.729,0.564 5.393,1.677 1.31,0.876 2.347,1.971 3.088,3.257 1.385,0.546 2.626,1.42 3.686,2.603 1.067,1.185 1.805,2.517 2.198,3.963 1.208,0.881 2.191,2.043 2.917,3.46 0.723,1.401 1.1,2.86 1.124,4.339 0.932,1.135 1.585,2.478 1.946,3.995 0.351,1.493 0.374,2.96 0.063,4.37 0.626,1.285 0.95,2.705 0.964,4.223 0.014,1.494 -0.276,2.898 -0.861,4.179 0.329,1.36 0.347,2.785 0.055,4.238 -0.289,1.444 -0.846,2.741 -1.662,3.864 0.049,1.383 -0.211,2.767 -0.772,4.121 -0.56,1.345 -1.352,2.5 -2.357,3.437 -0.214,1.359 -0.732,2.661 -1.538,3.875 -0.802,1.217 -1.798,2.2 -2.964,2.93 -0.469,1.289 -1.22,2.469 -2.238,3.51 -1.013,1.035 -2.174,1.81 -3.449,2.306 -0.7,1.176 -1.657,2.192 -2.85,3.022 -1.179,0.822 -2.453,1.365 -3.785,1.617 -0.895,1.015 -2.01,1.83 -3.314,2.424 -1.696,0.773 -3.487,1.078 -5.338,0.897 -1.285,1.343 -2.847,2.282 -4.648,2.793 -1.822,0.519 -3.677,0.54 -5.503,0.062 -1.5,1.134 -3.21,1.815 -5.094,2.026 -1.936,0.218 -3.689,-0.071 -5.384,-0.823 -1.507,0.795 -3.139,1.197 -4.857,1.197 -0.128,0 -0.258,-0.002 -0.395,-0.007 -1.796,-0.069 -3.475,-0.575 -4.998,-1.503 -1.638,0.604 -3.357,0.782 -5.101,0.526 -0.055,-0.008 -0.11,-0.026 -0.166,-0.035 -0.157,5.191 -0.324,10.257 -0.522,15.201 -0.063,1.752 -0.13,3.481 -0.196,5.203 h 0.004 c 1.067,0.078 2.059,0.285 3.038,0.631 2.363,0.836 4.301,2.336 5.908,4.572 2.716,-0.508 5.179,-0.232 7.459,0.815 2.345,1.078 4.184,2.83 5.612,5.344 0.341,-0.022 0.675,-0.032 0.999,-0.032 2.473,0 4.694,0.631 6.605,1.877 2.378,1.551 4.028,3.795 5.032,6.847 2.518,0.419 4.578,1.321 6.237,2.731 3.073,0.491 6.085,1.014 8.991,1.572 4.744,0.912 9.416,1.942 13.911,3.063 2.652,-7.318 9.523,-12.17 17.385,-12.17 10.201,0 18.5,8.299 18.5,18.5 0,10.201 -8.299,18.5 -18.5,18.5 -7.862,0 -14.733,-4.853 -17.385,-12.17 -4.495,1.121 -9.167,2.15 -13.911,3.062 -0.219,0.043 -0.449,0.082 -0.671,0.124 0.026,0.515 0.024,1.046 -0.028,1.603 -0.322,3.56 -2.165,6.483 -5.626,8.918 0.165,3.881 -0.836,6.986 -3.052,9.477 -1.857,2.088 -4.293,3.337 -7.429,3.808 -0.971,2.936 -2.556,5.126 -4.829,6.684 -1.993,1.365 -4.224,2.027 -6.821,2.027 -0.18,0 -0.359,-0.004 -0.537,-0.01 -1.304,2.52 -3.045,4.326 -5.301,5.509 -1.776,0.931 -3.709,1.359 -5.809,1.306 0.438,0.483 0.881,0.978 1.263,1.482 2.272,2.809 4.053,6.016 5.452,9.822 l 0.14,0.409 c 0.202,0.587 0.398,1.148 0.573,1.713 0.148,0.529 0.265,1.085 0.375,1.611 l 0.464,2.354 c 0.052,0.262 0.073,0.414 0.09,0.562 l 0.349,2.609 0.06,3.124 c -0.001,0.133 0,0.271 0.002,0.415 0.005,0.326 0.009,0.675 -0.018,1.059 l -0.194,2.25 c -0.041,0.467 -0.084,0.959 -0.167,1.49 l -0.398,2.242 c -0.844,4.145 -2.161,7.796 -4.025,11.16 -2.585,4.743 -6.034,8.768 -10.267,11.983 -2.893,2.084 -5.448,3.522 -8.033,4.523 l -0.223,0.088 c -0.669,0.268 -1.344,0.538 -2.092,0.791 l -2.415,0.657 c 0.075,0.171 0.164,0.328 0.233,0.503 2.202,-0.009 4.176,0.401 5.978,1.297 1.857,0.921 3.408,2.274 4.724,4.126 2.241,-0.582 4.353,-0.625 6.382,-0.135 2.056,0.498 3.916,1.523 5.664,3.125 2.15,-1.057 4.189,-1.522 6.421,-1.422 2.167,0.104 4.227,0.791 6.284,2.095 1.99,-1.452 4.034,-2.281 6.225,-2.531 l 0.158,-0.018 1.221,0.249 0.149,0.089 c 0.54,0.327 1.211,0.733 3.721,15.733 h 2.046 l -2.277,1.787 c -0.142,0.11 -0.516,0.477 -0.765,0.719 -1.825,1.767 -4.878,4.726 -9.719,4.899 -2.806,0.089 -5.448,-0.759 -8.083,-2.606 -2.819,1.595 -5.523,2.171 -8.276,1.789 -2.816,-0.395 -5.315,-1.734 -7.62,-4.09 -3.171,1.063 -5.963,1.086 -8.63,0.129 -2.742,-0.984 -4.949,-2.866 -6.73,-5.742 -0.583,0.054 -1.134,0.082 -1.668,0.082 -2.653,0 -4.933,-0.664 -6.968,-2.029 -2.477,-1.661 -4.182,-4.118 -5.195,-7.5 -2.383,-0.446 -5.557,-1.458 -7.994,-4.502 -1.43,-1.786 -2.297,-3.926 -2.577,-6.366 l -0.126,-1.113 h 4.87 c -1.013,-0.393 -2.052,-0.832 -3.128,-1.332 -0.811,-0.41 -1.615,-0.844 -2.42,-1.287 -0.592,-0.332 -1.15,-0.707 -1.689,-1.071 -0.215,-0.144 -0.429,-0.29 -0.663,-0.441 l -1.183,-0.81 -1.402,-1.123 c -0.597,-0.489 -1.217,-0.995 -1.797,-1.542 -2.675,-2.491 -5.022,-5.443 -6.981,-8.786 -1.867,-3.28 -3.242,-6.792 -4.1,-10.487 l -0.601,-3.436 -0.301,-3.923 c -0.006,-0.118 -0.013,-0.236 -0.01,-0.35 l 0.141,-2.77 c -0.006,-0.316 -0.01,-0.533 0.014,-0.703 l 0.312,-2.482 c 0.096,-0.922 0.305,-1.81 0.514,-2.694 0.348,-1.752 0.939,-3.421 1.51,-5.033 l 0.064,-0.173 c 1.438,-3.512 3.17,-6.588 5.143,-9.143 0.372,-0.482 0.769,-0.941 1.167,-1.396 l 0.469,-0.542 c 0.588,-0.715 1.241,-1.345 1.774,-1.843 1.152,-1.204 2.437,-2.221 3.679,-3.204 l 0.147,-0.115 c 2.842,-2.037 5.512,-3.538 8.082,-4.553 l -1.017,-11.392 c -0.282,-3.455 -0.592,-7.451 -0.916,-11.914 -7.54,-0.272 -14.813,-0.731 -21.627,-1.365 -11.159,-1.014 -22.351,-2.567 -32.368,-4.487 -4.75,-0.912 -9.422,-1.937 -13.902,-3.049 -2.645,7.334 -9.518,12.196 -17.395,12.196 -10.201,0 -18.5,-8.299 -18.5,-18.5 0,-10.201 8.299,-18.5 18.5,-18.5 7.877,0 14.75,4.862 17.395,12.196 4.48,-1.112 9.152,-2.138 13.902,-3.05 10.017,-1.92 21.209,-3.472 32.366,-4.486 6.187,-0.576 12.821,-1.009 19.737,-1.287 -0.218,-4.093 -0.439,-8.371 -0.651,-12.775 v 7.937 l -1.497,-0.863 c -0.164,-0.094 -0.324,-0.189 -0.479,-0.286 -1.503,0.543 -3.11,0.688 -4.771,0.434 -1.158,-0.178 -2.236,-0.533 -3.212,-1.057 -1.112,0.118 -2.255,0.036 -3.407,-0.247 -1.193,-0.293 -2.281,-0.772 -3.238,-1.424 -1.182,-0.008 -2.367,-0.211 -3.538,-0.648 -1.239,-0.464 -2.326,-1.124 -3.241,-1.964 -1.258,-0.161 -2.491,-0.586 -3.667,-1.265 -1.277,-0.739 -2.326,-1.68 -3.125,-2.801 -1.349,-0.449 -2.588,-1.213 -3.691,-2.276 -1.232,-1.187 -2.101,-2.554 -2.584,-4.068 -1.34,-0.921 -2.406,-2.187 -3.175,-3.771 -0.831,-1.711 -1.159,-3.463 -0.974,-5.213 -0.972,-1.482 -1.482,-3.205 -1.515,-5.127 -0.033,-1.871 0.393,-3.57 1.264,-5.059 -0.242,-1.689 -0.008,-3.408 0.697,-5.117 0.656,-1.582 1.608,-2.889 2.838,-3.887 0.367,-1.504 1.113,-2.898 2.219,-4.148 1.046,-1.184 2.262,-2.064 3.622,-2.619 0.751,-1.236 1.792,-2.287 3.095,-3.131 1.263,-0.815 2.603,-1.322 3.99,-1.513 0.999,-0.962 2.214,-1.694 3.619,-2.184 1.732,-0.602 3.529,-0.738 5.334,-0.404 1.378,-1.206 2.988,-1.998 4.797,-2.356 1.818,-0.365 3.631,-0.248 5.377,0.344 1.043,-0.678 2.17,-1.135 3.359,-1.403 l -0.275,-12.288 -0.104,0.023 c -0.529,0.119 -0.98,0.193 -1.42,0.232 -2.611,0.239 -4.927,-0.35 -7.283,-1.763 -2.375,1.469 -4.724,2.084 -7.369,1.842 -2.616,-0.239 -5.006,-1.358 -7.111,-3.325 -2.782,0.953 -5.422,0.971 -7.953,0.069 -2.575,-0.917 -4.592,-2.608 -6.151,-5.165 -3.01,0.167 -5.58,-0.554 -7.787,-2.138 -1.682,-1.209 -2.963,-2.816 -3.815,-4.782 -2.023,-0.499 -3.754,-1.617 -5.152,-3.329 -0.937,-1.151 -1.586,-2.408 -1.932,-3.742 -1.037,-0.876 -1.879,-1.987 -2.506,-3.307 -0.605,-1.268 -0.935,-2.571 -0.984,-3.879 -0.773,-1.03 -1.334,-2.23 -1.668,-3.571 -0.32,-1.298 -0.39,-2.58 -0.209,-3.815 -0.546,-1.111 -0.869,-2.342 -0.965,-3.664 -0.09,-1.296 0.049,-2.537 0.416,-3.695 -0.346,-1.158 -0.467,-2.395 -0.359,-3.683 0.108,-1.277 0.433,-2.466 0.963,-3.541 -0.168,-1.189 -0.104,-2.418 0.192,-3.665 0.296,-1.249 0.792,-2.381 1.48,-3.369 0.01,-1.204 0.258,-2.415 0.738,-3.609 0.484,-1.204 1.153,-2.257 1.99,-3.137 0.199,-1.205 0.637,-2.379 1.307,-3.497 0.683,-1.135 1.527,-2.086 2.517,-2.828 0.395,-1.179 1.036,-2.286 1.905,-3.297 0.881,-1.021 1.894,-1.825 3.019,-2.39 0.609,-1.114 1.451,-2.106 2.51,-2.955 1.067,-0.859 2.232,-1.47 3.459,-1.821 0.815,-0.991 1.838,-1.816 3.051,-2.456 2.108,-1.111 4.429,-1.476 6.877,-1.076 1.68,-1.812 3.74,-2.934 6.129,-3.341 2.318,-0.39 4.586,-0.041 6.721,1.044 1.687,-0.956 3.484,-1.44 5.349,-1.44 0.375,0 0.762,0.019 1.16,0.061 2.139,0.225 4.071,1.044 5.754,2.439 2.034,-0.614 4.09,-0.637 6.096,-0.07 0.207,0.058 0.398,0.143 0.599,0.213 0.035,-5.361 0.086,-10.602 0.207,-15.816 0.002,-0.11 0.005,-0.22 0.008,-0.33 -1.119,-0.557 -2.094,-1.27 -2.891,-2.148 -1.61,-0.141 -3.144,-0.68 -4.567,-1.608 -1.046,-0.681 -1.928,-1.506 -2.631,-2.456 -1.179,-0.48 -2.288,-1.24 -3.297,-2.263 -0.633,-0.64 -1.167,-1.322 -1.587,-2.029 -0.605,-0.52 -1.163,-1.137 -1.666,-1.835 -0.488,-0.673 -0.884,-1.368 -1.181,-2.07 -0.496,-0.563 -0.943,-1.209 -1.334,-1.922 -0.389,-0.709 -0.69,-1.432 -0.898,-2.152 -0.42,-0.614 -0.787,-1.302 -1.086,-2.052 -0.305,-0.759 -0.52,-1.519 -0.641,-2.263 -0.351,-0.672 -0.633,-1.415 -0.844,-2.212 -0.215,-0.818 -0.334,-1.628 -0.354,-2.404 -0.271,-0.739 -0.458,-1.545 -0.56,-2.398 -0.102,-0.878 -0.105,-1.729 -0.007,-2.534 -0.166,-0.806 -0.229,-1.671 -0.192,-2.572 0.039,-0.933 0.185,-1.816 0.433,-2.631 -0.03,-0.861 0.063,-1.765 0.274,-2.687 0.211,-0.933 0.527,-1.796 0.941,-2.572 0.137,-0.886 0.411,-1.792 0.817,-2.693 0.394,-0.882 0.881,-1.673 1.443,-2.355 0.31,-0.837 0.754,-1.667 1.324,-2.467 0.465,-0.65 0.983,-1.208 1.527,-1.702 l -6.649,1.823 -8.392,2.616 c -1.037,0.372 -2.091,0.738 -3.154,1.107 -1.8,0.627 -3.665,1.277 -5.484,1.964 l -6.566,2.59 -6.594,2.909 c -0.92,0.427 -1.825,0.876 -2.737,1.328 -0.537,0.266 -1.075,0.534 -1.63,0.803 -2.037,0.949 -3.955,2.01 -5.987,3.133 -0.879,0.486 -1.759,0.974 -2.619,1.434 -0.877,0.514 -1.742,1.043 -2.609,1.575 -0.531,0.326 -1.065,0.652 -1.59,0.969 l -0.77,0.468 c -0.445,0.269 -0.89,0.537 -1.306,0.809 l -2.029,1.376 c -0.491,0.344 -0.993,0.678 -1.496,1.013 -0.85,0.567 -1.731,1.153 -2.541,1.783 l -3.901,2.937 -1.207,0.997 c -2.072,1.71 -4.215,3.478 -6.142,5.362 -2.151,2.03 -4.181,4.095 -6.052,6.153 12.895,6.255 30.931,4.255 30.931,4.255 0,0 -0.11,0.114 -0.321,0.334 0.131,-0.013 0.207,-0.022 0.211,-0.022 l 2.781,-0.307 -1.955,2.001 c -0.512,0.522 -51.146,52.768 -56.543,96.922 l -0.302,2.461 -1.491,-1.982 c -8.586,-11.411 -18.07,-36.353 -18.606,-64.144 -0.441,-22.766 4.944,-54.819 33.088,-78.225 l 0.423,-0.353 c 0.074,-0.061 0.142,-0.125 0.215,-0.185 0.001,0.002 0.001,0.004 0.003,0.005 l 0.471,-0.393 0.473,1.368 c 0.728,2.111 0.611,5.817 0.464,10.509 -0.107,3.465 -0.226,7.297 0.002,10.952 0.494,-0.713 0.994,-1.419 1.494,-2.112 1.958,-2.806 4.173,-5.48 6.319,-8.066 l 0.791,-0.955 3.824,-4.232 c 0.855,-0.966 1.766,-1.867 2.647,-2.737 0.463,-0.459 0.928,-0.919 1.396,-1.4 l 2.045,-2.04 c 0.457,-0.44 0.924,-0.863 1.393,-1.287 l 2.09,-1.901 c 0.959,-0.875 1.919,-1.75 2.918,-2.624 0.791,-0.649 1.578,-1.305 2.368,-1.962 2.094,-1.747 4.26,-3.554 6.471,-5.162 0.499,-0.374 0.996,-0.751 1.494,-1.129 0.996,-0.757 1.994,-1.513 3.014,-2.248 l 6.83,-4.727 6.834,-4.342 c 2.043,-1.257 4.106,-2.451 6.1,-3.605 0.98,-0.567 1.957,-1.132 2.959,-1.72 l 8.826,-4.733 8.47,-4.169 c 1.834,-0.876 3.641,-1.688 5.391,-2.473 0.885,-0.397 1.76,-0.79 2.615,-1.18 2.026,-0.944 3.994,-1.757 5.895,-2.543 l 1.578,-0.655 c 0.817,-0.333 1.621,-0.669 2.409,-0.999 1.519,-0.635 2.951,-1.234 4.36,-1.761 1.456,-0.547 2.847,-1.082 4.173,-1.589 2.502,-0.959 4.867,-1.865 6.908,-2.577 l 3.64,-1.268 c 0.174,-0.999 0.338,-1.913 0.491,-2.743 -4.005,-0.739 -9.656,-2.34 -9.656,-5.502 0,-4.237 10.566,-6.454 21,-6.454 10.437,0 21,2.217 21,6.454 0,3.154 -5.626,4.756 -9.618,5.495 0.151,0.803 0.314,1.685 0.484,2.644 l 3.944,1.374 c 1.788,0.625 3.832,1.4 5.992,2.226 0.617,-1.049 1.437,-2.115 2.558,-3.091 1.759,-1.533 3.896,-2.518 6.513,-3 0.475,-2.593 1.442,-4.719 2.945,-6.484 1.48,-1.739 3.406,-3.012 5.867,-3.876 0.056,-2.636 0.676,-4.893 1.884,-6.882 1.542,-2.541 3.653,-3.956 5.309,-4.823 -0.326,-2.716 -0.014,-5.101 0.944,-7.268 1.234,-2.797 3.222,-4.498 4.813,-5.58 -0.635,-2.746 -0.566,-5.212 0.202,-7.516 0.988,-2.971 2.876,-4.878 4.407,-6.119 -0.862,-2.747 -0.975,-5.257 -0.35,-7.655 1.12,-4.293 4.145,-6.632 6.156,-8.185 0.228,-0.176 0.758,-0.586 0.87,-0.697 l 0.375,-0.366 0.513,0.098 c 0.039,0.007 3.84,0.731 6.041,1.229 l 10.824,4.097 -0.198,0.852 c -0.719,3.079 -2.878,6.306 -4.821,8.174 0.703,2.056 1.345,4.954 0.386,8.226 -0.984,3.353 -3.13,5.488 -4.861,6.862 0.566,2.13 1.007,5.108 -0.225,8.332 -1.271,3.335 -3.647,5.311 -5.533,6.547 0.361,2.225 0.504,5.301 -1.11,8.432 -1.673,3.248 -4.339,4.954 -6.412,5.969 0.055,2.307 -0.227,5.451 -2.335,8.381 -2.156,2.992 -5.086,4.279 -7.317,4.965 -0.315,2.297 -1.103,5.371 -3.674,7.943 -0.326,0.325 -0.658,0.619 -0.995,0.889 1.493,0.67 3.014,1.359 4.572,2.102 l 8.489,4.18 8.83,4.736 c 0.976,0.573 1.957,1.141 2.944,1.714 1.99,1.15 4.043,2.339 6.091,3.599 l 6.856,4.357 6.81,4.715 c 1.009,0.726 2.006,1.483 3.004,2.241 0.496,0.377 0.992,0.753 1.48,1.118 2.222,1.617 4.391,3.426 6.489,5.175 0.786,0.655 1.57,1.31 2.387,1.978 0.978,0.859 1.945,1.738 2.91,2.618 l 2.082,1.894 c 0.465,0.421 0.928,0.843 1.395,1.292 l 2.042,2.038 c 0.459,0.472 0.926,0.933 1.392,1.393 0.88,0.87 1.789,1.769 2.635,2.725 l 3.859,4.274 0.76,0.916 c 2.144,2.588 4.362,5.263 6.314,8.058 0.471,0.654 0.944,1.322 1.413,2.001 0.343,-3.994 0.209,-8.273 0.089,-12.134 -0.145,-4.693 -0.262,-8.399 0.467,-10.509 l 0.472,-1.369 1.113,0.926 c 28.143,23.407 33.526,55.459 33.088,78.226"
           style="fill:#000000;fill-opacity:1;fill-rule:nonzero;stroke:none"
           id="path5617"
           inkscape:connector-curvature="0" /><g
           id="g5619"><g
             id="g5621"
             clip-path="url(#clipPath5625)"><g
               id="g5627"><g
                 id="g5629"><g
                   id="g5635"><g
                     id="g5637"><g
                       id="g5639"
                       clip-path="url(#clipPath5643)"><path
                         d="m 305.703,356.171 h 7.998 v -69.608 h -7.998 z"
                         style="fill:url(#linearGradient5649);stroke:none"
                         id="path5651"
                         inkscape:connector-curvature="0" /></g></g></g></g></g></g></g></g></g></g></svg>