<svg width="163" height="189" viewBox="0 0 163 189" fill="none" xmlns="http://www.w3.org/2000/svg">
<path d="M161.611 184.336L161.604 184.351L161.599 184.365C160.736 186.611 158.582 188.085 156.189 188.067L156.143 188.067L156.097 188.075C155.429 188.196 154.745 188.199 154.077 188.085L81.6952 157.433L81.5004 157.351L81.3055 157.433L8.75873 188.102C8.75675 188.103 8.75478 188.104 8.7528 188.104C5.79592 189.262 2.46158 187.793 1.30598 184.819L1.29098 184.78L1.27741 184.744L1.26658 184.716L1.25234 184.689C-0.235033 181.863 0.840903 178.361 3.65143 176.869L3.65159 176.869C3.95218 176.709 4.26631 176.576 4.59051 176.472L4.61017 176.466L4.62923 176.458L65.3034 151.316L66.4181 150.854L65.3034 150.392L4.62923 125.25L4.60694 125.24L4.58387 125.233C1.54409 124.305 -0.174784 121.074 0.750535 118.014C1.67556 114.956 4.89098 113.234 7.92972 114.162L7.92978 114.162C8.20174 114.245 8.46779 114.349 8.72675 114.472L8.73766 114.477L8.74882 114.482L81.3076 144.778L81.5002 144.859L81.6929 144.778L154.252 114.482L154.263 114.477L154.274 114.472C157.143 113.102 160.577 114.327 161.941 117.214C163.307 120.101 162.083 123.553 159.213 124.923L159.212 124.924C158.955 125.047 158.69 125.15 158.417 125.233L158.394 125.24L158.372 125.25L97.5723 150.392L96.4561 150.853L97.572 151.316L158.246 176.458L158.259 176.463L158.272 176.468C161.272 177.52 162.858 180.819 161.811 183.838L161.811 183.838C161.752 184.008 161.686 184.174 161.611 184.336ZM112.454 87.6149L112.276 87.7647V87.9981L112.276 102.581L112.276 102.584C112.293 104.992 110.824 107.157 108.591 108.023L108.585 108.026L81.6531 118.926H80.9716L53.932 108.032C51.8884 107.021 50.6291 104.892 50.7245 102.601L50.7249 102.591V102.581V87.9981V87.7627L50.5435 87.6128C42.4738 80.9408 34.8898 73.6968 27.8487 65.9383C26.4107 63.8577 25.6603 61.375 25.7046 58.8418L25.7046 58.8418V58.833V53.1947C27.7822 25.5649 49.2283 3.3854 76.6475 0.5H81.1249H85.9798C113.568 3.16536 135.239 25.4148 137.296 53.1946L137.296 58.8281C137.296 58.8286 137.296 58.8291 137.296 58.8297C137.27 61.3919 136.433 63.8797 134.907 65.9328C127.938 73.6816 120.436 80.9269 112.454 87.6149ZM63.235 50.2846C63.235 43.0677 57.4127 37.2135 50.2249 37.2135C43.0371 37.2135 37.2148 43.0677 37.2148 50.2846C37.2148 57.5015 43.0371 63.3558 50.2249 63.3558C57.4127 63.3558 63.235 57.5015 63.235 50.2846ZM75.7452 87.9981C75.7452 84.2534 72.7226 81.2125 68.9901 81.2125C65.2576 81.2125 62.235 84.2534 62.235 87.9981V94.2837C62.235 98.0284 65.2576 101.069 68.9901 101.069C72.7226 101.069 75.7452 98.0284 75.7452 94.2837V87.9981ZM100.765 87.9981C100.765 84.2534 97.7428 81.2125 94.0104 81.2125C90.2779 81.2125 87.2553 84.2534 87.2553 87.9981V94.2837C87.2553 98.0284 90.2779 101.069 94.0104 101.069C97.7428 101.069 100.765 98.0284 100.765 94.2837V87.9981ZM125.786 50.2846C125.786 43.0677 119.963 37.2135 112.776 37.2135C105.588 37.2135 99.7654 43.0677 99.7654 50.2846C99.7654 57.5015 105.588 63.3558 112.776 63.3558C119.963 63.3558 125.786 57.5015 125.786 50.2846Z" fill="#5D0503" stroke="#340D06"/>
</svg>
